<?xml version="1.0" encoding="UTF-8"?>
<svg version="1.1" xmlns="http://www.w3.org/2000/svg" xmlns:xlink="http://www.w3.org/1999/xlink">
<defs>
<clipPath id="clip0_2236_118703"><rect width="32" height="32" rx="16" fill="#fff"/></clipPath>
</defs>
<symbol id="i-facebook" viewBox="0 0 32 32" fill="none" xmlns="http://www.w3.org/2000/svg"><path d="M16 32c8.837 0 16-7.163 16-16S24.837 0 16 0 0 7.163 0 16s7.163 16 16 16z" fill="#3B5999"/><path d="M20.594 10.034V7.14s-2.958-.029-3.158-.029c-1.336 0-3.256 1.522-3.256 3.25v3.1h-2.774v3.286h2.73v8.142h3.236v-8.185h2.86l.362-3.207h-3.186v-2.354c0-.569.427-1.116 1.067-1.116.426-.015 2.119.007 2.119.007z" fill="#fff"/></symbol>
<symbol id="i-fb" xmlns="http://www.w3.org/2000/svg" viewBox="0 0 8 14"><path fill="currentColor" d="M6.815.003L5.116 0C3.208 0 1.975 1.265 1.975 3.223V4.71H.267A.267.267 0 000 4.977V7.13c0 .148.12.267.267.267h1.708v5.434c0 .147.12.267.267.267H4.47c.148 0 .267-.12.267-.267V7.397h1.997c.147 0 .267-.12.267-.267V4.977a.267.267 0 00-.266-.267H4.737V3.45c0-.606.144-.913.933-.913h1.144c.148 0 .267-.12.267-.268v-2a.267.267 0 00-.266-.266z"/></symbol>
<symbol id="i-g" xmlns="http://www.w3.org/2000/svg" viewBox="0 0 12 12"><path fill="currentColor" d="M6 4.8v2.4h3.395A3.607 3.607 0 016 9.6 3.604 3.604 0 012.4 6c0-1.985 1.615-3.6 3.6-3.6.86 0 1.688.308 2.332.869l1.576-1.81A5.946 5.946 0 006 0C2.692 0 0 2.692 0 6s2.692 6 6 6 6-2.692 6-6V4.8H6z"/></symbol>
<symbol id="i-instagram" viewBox="0 0 32 32" fill="none" xmlns="http://www.w3.org/2000/svg"><g clip-path="url(#clip0_2236_118703)"><path d="M32.688 6.064c-.377.246-.916.473-1.142.728-.085.085-.133.18-.114.274v.972l-.283.954-.283.945-.312 1.039-.642 2.125-.624 2.096-.472 1.577c0 .246-.01.492-.028.728a9.362 9.362 0 01-.557 2.587c-.18.501-.397.983-.662 1.436-.094.18-.207.359-.32.529a8.845 8.845 0 01-1.332 1.624 8.02 8.02 0 01-1.275 1.049h-.01a1.2 1.2 0 01-.255.17 6.835 6.835 0 01-.925.52 5.884 5.884 0 01-.661.292c-.048.028-.104.047-.152.066a6.182 6.182 0 01-1.785.51c-.037.01-.066.01-.103.019-.378.066-.747.123-1.124.151-.17.019-.35.028-.52.028l-.67-.037-3.23-.17c0-.01-.01 0-.01 0l-1.624-.085c-.123 0-.255 0-.378-.01a8.706 8.706 0 01-1.492-.18h-.01a9.658 9.658 0 01-2.56-.878 9.855 9.855 0 01-1.284-.774 6.44 6.44 0 01-.49-.397c-.454-.378-.86-.784-1.238-1.2-.057-.056-.104-.113-.151-.17a2.748 2.748 0 01-.16-.179 8.09 8.09 0 01-.907-1.407 7.145 7.145 0 01-.548-1.407 5.009 5.009 0 01-.142-.538.072.072 0 01-.019-.048 9.958 9.958 0 01-.226-1.2 5.243 5.243 0 01-.085-.944c-.02-.122-.02-.255-.02-.377l1.805-2.786 1.766-2.72.803-1.238.727-1.114.245-.387v-.973c.02-.217.029-.444.02-.652a5.996 5.996 0 00-.36-1.917c-.207-.652-.5-1.266-.802-1.832-.36-.652-.737-1.237-1.049-1.766C6.556.322 6.234-.311 6.32-.754A9.28 9.28 0 018.444-1h15.112c3.947 0 7.347 2.456 8.755 5.912.15.369.283.756.377 1.152z" fill="#304FFE"/><path d="M33 8.444V8.7l-1.303.756-.831.482-.916.529-1.833 1.067-1.794 1.039-1.832 1.057-.728.425c0 .454-.113.87-.32 1.247-.294.548-.785 1.001-1.408 1.388-.633.388-1.407.7-2.276.926 0 0 0-.01-.01 0-3.362.869-7.952.472-10.18-1.19-.624-.463-1.058-1.03-1.247-1.681a2.757 2.757 0 01-.085-.69v-6.79c.01-.142-.085-.283-.255-.425-.51-.406-1.71-.793-3.05-1.18-1.05-.293-2.173-.586-3.117-.87-.747-.226-1.38-.453-1.757-.67.17-.33.368-.661.576-.973a9.486 9.486 0 015.686-3.9A9.28 9.28 0 018.445-1h10.2A31.809 31.809 0 0132.31 4.912c.15.369.283.756.377 1.152.17.624.274 1.266.303 1.937.01.141.01.292.01.443z" fill="#4928F4"/><path d="M33 8.444v4.165l-.208.643-.708 2.2-.737 2.267-.387 1.209-.359 1.124-.35 1.067-.34 1.058-.179.557-.236.737c0 .717-.019 1.35-.066 1.889-.01.056-.019.113-.019.17-.057.5-.132.925-.255 1.284a.807.807 0 01-.047.16c-.246.68-.614 1.115-1.162 1.398a2.733 2.733 0 01-.444.19c-.5.17-1.133.254-1.907.301-.567.038-1.219.048-1.956.048h-.651l-1.124-.048-.198-.01-2.05-.084-2.078-.085-6.847-.283-1.775-.076H8.67c-.737-.01-1.37-.057-1.917-.132-.793-.123-1.407-.33-1.87-.642-.661-.425-1.048-1.049-1.275-1.918a4.55 4.55 0 01-.132-.66c-.095-.549-.142-1.181-.17-1.89 0-.141 0-.283-.01-.434-.01-.01 0-.01 0-.01v-.547c-.01-.274-.01-.557-.01-.85l.048-1.52.028-1.087.038-1.266v-.179l.066-2.323.066-2.324.066-2.181.057-2.144.019-.567c0-.293-.992-.463-2.097-.604C.7 6.933-.263 6.83-.839 6.697c.047-.217.094-.434.15-.642A8.74 8.74 0 01.059 4.12c.17-.33.368-.661.576-.973a31.476 31.476 0 016.384-2.05 29.692 29.692 0 016.073-.623c6.951 0 13.373 2.352 18.455 6.319.49.378.972.784 1.444 1.209.01.141.01.292.01.444z" fill="#6200EA"/><path d="M33 10.683v4.287l-.52 1.002-.991 1.936-.529 1.02-.482.935-.207.406c0 .293 0 .576-.02.85 0 .406-.018.793-.047 1.152a17 17 0 01-.15 1.171c-.142.746-.34 1.389-.624 1.917-.038.066-.076.133-.113.19-.104.17-.227.33-.36.481-.17.208-.358.387-.575.538a4.026 4.026 0 01-1.134.595c-.538.199-1.161.33-1.898.406-.482.048-1.01.076-1.587.076l-.396.019-1.965.113h-.01l-2.086.123-2.125.123-2.928.17-3.56.207-.52.029c-.482 0-.935-.028-1.37-.085-.047-.01-.085-.019-.132-.019a7.058 7.058 0 01-1.757-.51 5.75 5.75 0 01-1.671-1.114 6.174 6.174 0 01-1.067-1.389c-.067-.123-.133-.236-.19-.368a8.825 8.825 0 01-.68-1.86 4.003 4.003 0 01-.075-.36 5.095 5.095 0 01-.132-.68 15.152 15.152 0 01-.189-1.917v-.01c-.01-.273-.019-.538-.019-.82l-.463-1.106-.066-.17-.056-.142-.709-1.69-.113-.274-.68-1.634-.756-1.823h-.01l-.764-1.841-.274-.67V8.443c0-.595.057-1.18.16-1.747.048-.217.095-.434.152-.642a25.87 25.87 0 012.502-1.266 27.31 27.31 0 016.253-1.926 28.405 28.405 0 015.024-.454c6.904 0 13.166 2.503 18.058 6.583.189.151.368.302.548.463.444.387.878.793 1.303 1.228z" fill="#673AB7"/><path d="M33 13.497v4.855l-.538 1.123-1.02 2.125-.01.029c0 .406-.019.774-.047 1.105-.094 1.086-.359 1.775-.793 2.2-.312.322-.7.501-1.18.595-.03.01-.067.01-.095.02a2.606 2.606 0 01-.482.047c-.586.056-1.275.018-2.068-.038-.085 0-.18-.01-.274-.02a76.546 76.546 0 00-1.87-.103c-.369-.01-.756-.019-1.152-.019h-.02l-.953.076h-.01l-2.144.15-2.446.19-.359.028-2.861.208-1.483.113-1.464.104c-.255 0-.5 0-.746-.01 0 0-.01-.009-.01 0-1.067-.018-2.02-.084-2.87-.245-.784-.132-1.474-.34-2.06-.652a4.181 4.181 0 01-1.51-1.237c-.388-.52-.671-1.171-.85-1.955v-.01a10.821 10.821 0 01-.208-2.2l-.142-.255-.84-1.502-.123-.207-.066-.133-.879-1.558-.434-.784-.548-.973-.944-1.69-.501-.888V8.511a23.18 23.18 0 012.578-1.464 23.189 23.189 0 013.353-1.389 25.783 25.783 0 013.938-.963c1.37-.227 2.777-.34 4.222-.34 6.422 0 12.316 2.295 16.858 6.11.208.161.407.34.605.51a24.255 24.255 0 012.238 2.277c.076.085.151.16.208.245z" fill="#8E24AA"/><path d="M33 16.67V23.5a9.271 9.271 0 00-.926-.463 7.894 7.894 0 00-.689-.302 14.695 14.695 0 00-1.473-.557c-.17-.067-.35-.123-.53-.18-.556-.17-1.17-.33-1.813-.472-.245-.047-.5-.095-.755-.132-.822-.142-1.7-.227-2.616-.236-.076-.01-.16-.01-.236-.01l-2.428.019-3.305.019h-.01l-7.073.057c-2.248 0-3.627.538-4.458.755 0 0-.01 0-.01.01-.878.226-1.152.085-1.227-1.455a38.462 38.462 0 01-.029-1.643l-.529-.406-.925-.7-.567-.434-.113-.085-1.568-1.19-.236-.18-.491-.377-.907-.68L-1 14.026v-3.211c.094-.076.18-.142.274-.198a24.32 24.32 0 014.382-2.4A24.822 24.822 0 017.982 6.84c.406-.085.821-.17 1.246-.227a22.682 22.682 0 013.863-.321c5.676 0 10.89 1.974 15.026 5.242.624.49 1.228 1.01 1.795 1.568.774.736 1.501 1.52 2.172 2.351.132.17.264.34.397.52.179.226.349.462.519.699z" fill="#C2185B"/><path d="M33 20.458v3.098a9.5 9.5 0 01-.17 1.803c-.17.87-.463 1.7-.86 2.475a1.963 1.963 0 01-.708.01c-.595-.105-1.294-.416-2.05-.822a.35.35 0 01-.103-.047 11.49 11.49 0 01-.727-.407c-.5-.274-1.03-.576-1.559-.86a10.49 10.49 0 01-.33-.17 14.507 14.507 0 00-1.851-.811h-.01a5.369 5.369 0 00-.415-.133 6.039 6.039 0 00-1.615-.245l-1.04-.302-4.599-1.332h-.01l-2.823-.822h-.01l-1.227-.358c-3.551 0-5.733 1.51-6.79.934-.416-.217-.662-.765-.747-1.841a11.302 11.302 0 01-.038-1.04l-1.105-.537-.047-.02h-.01l-.793-.396-.869-.416-.066-.028-.16-.085-1.851-.897-1.417-.69V13.28c.16-.142.33-.274.5-.406.18-.142.36-.274.539-.416h.01a21.931 21.931 0 013.55-2.096 21.167 21.167 0 014.638-1.587 9.01 9.01 0 01.727-.151 22.073 22.073 0 014.127-.387 22.182 22.182 0 0116.197 6.96 21.985 21.985 0 012.06 2.522c.046.066.094.132.14.189.35.51.671 1.03.974 1.568.198.32.368.651.538.982z" fill="#D81B60"/><path d="M32.83 25.36a9.38 9.38 0 01-1.87 4.042c-.34-.133-.84-.321-1.454-.53v-.009c-.463-.16-.992-.33-1.559-.49a17.202 17.202 0 00-2.54-.576 10.122 10.122 0 00-1.644-.152l-.434-.123h-.01l-2.285-.66-1.407-.407-1.568-.453h-.01l-.51-.142-6.167-1.776-1.775-.51-1.323-.311-2.153-.51-.264-.066h-.01l-2.163-.5v-.01l-.387-.085-.198-.047-1.577-.369-.18-.047-1.34-1.105-1.002-.84V15.83c.35-.34.708-.661 1.086-.973.113-.104.236-.198.359-.292a19.079 19.079 0 013.088-2.021 18.718 18.718 0 013.9-1.568c.265-.085.53-.16.804-.218a19.983 19.983 0 014.854-.585 20.395 20.395 0 0115.697 7.329c.623.746 1.19 1.53 1.69 2.36.048.067.085.124.123.19.302.5.586 1.02.84 1.549.237.472.445.944.633 1.435.303.756.548 1.53.756 2.323z" fill="#F50057"/><path d="M31.376 28.835a9.26 9.26 0 01-1.794 1.974 9.716 9.716 0 01-1.418.982 5.005 5.005 0 01-.576-.18c-.623-.216-1.275-.575-1.88-.953a22.58 22.58 0 01-2.04-1.483l-.197-.17-1.606-.142-.198-.018-2.078-.18-2.153-.189-3.183-.283-5.044-.444-.018-.01-1.776-.859-1.794-.869-1.445-.699-.312-.15-.387-.19-1.341-.651-1.785-.86-.558-.274-.793-.245V18.72A19.42 19.42 0 01.417 17.21c.32-.302.66-.604 1.01-.888.057-.047.114-.094.17-.132a.357.357 0 01.123-.095c.557-.453 1.143-.859 1.747-1.227.7-.444 1.436-.84 2.2-1.171.822-.369 1.682-.68 2.57-.916a17.88 17.88 0 014.854-.662c3.853 0 7.414 1.171 10.351 3.183a18.323 18.323 0 014.789 4.789c.425.604.802 1.246 1.152 1.907.123.246.245.491.35.737.113.236.216.472.32.708.199.491.378.982.539 1.492a17.586 17.586 0 01.784 3.901z" fill="#FF1744"/><path d="M29.59 30.563c0 .076 0 .16-.009.246a9.716 9.716 0 01-1.417.982c-.207.113-.415.227-.632.321a8.202 8.202 0 01-.661.284 17.27 17.27 0 00-1.219-.577c-.651-.292-1.36-.557-1.908-.642a1.744 1.744 0 00-.368-.038l-1.549-.198h-.019l-1.926-.255-1.946-.255-.907-.113-7.14-.926c-.462 0-.953-.028-1.463-.094a17.896 17.896 0 01-1.927-.284 25.582 25.582 0 01-1.917-.425 38.815 38.815 0 01-1.89-.5 70.268 70.268 0 01-2.984-.963 8.273 8.273 0 01-.415-1.266A8.86 8.86 0 01-1 23.556v-1.578c.302-.5.633-.991 1.001-1.454a15.73 15.73 0 012.267-2.418.384.384 0 01.094-.085l.01-.01c.292-.264.595-.5.916-.727.038-.037.075-.066.113-.094.151-.113.312-.227.482-.33a16.284 16.284 0 014.439-2.116 16.547 16.547 0 014.77-.69c3.295 0 6.374.973 8.943 2.635a16.32 16.32 0 014.779 4.704c.151.217.293.434.434.66a17.327 17.327 0 011.587 3.543c.047.141.085.283.123.434.075.255.141.52.198.784.019.066.038.132.057.208.132.595.226 1.218.293 1.841v.01c.056.557.085 1.124.085 1.69z" fill="#FF5722"/><path d="M27.645 30.563c0 .33-.019.69-.057 1.049l-.056.5a8.988 8.988 0 01-1.964.67 7.56 7.56 0 01-.926.152h-.01a18.91 18.91 0 01-.982-.642 54.524 54.524 0 01-1.823-1.35l-.019-.02c-.557-.425-.954-.746-.954-.746l-1 .038-1.927.066-.898.038-3.607.132-3.05.113c-.2.01-.435.01-.728 0h-.01c-.396-.01-.869-.037-1.388-.085a96.453 96.453 0 01-1.936-.17c-.652-.075-1.313-.15-1.946-.226a78.38 78.38 0 01-1.926-.236c-.444-.057-.831-.104-1.143-.142a9.065 9.065 0 01-.727-.954 8.612 8.612 0 01-.86-1.624 8.273 8.273 0 01-.415-1.266c.274-.84.633-1.634 1.058-2.399a13.83 13.83 0 011.17-1.785c.426-.557.888-1.077 1.389-1.549v-.01a8.15 8.15 0 01.425-.396c.264-.245.538-.472.822-.69h.01c.009-.018.018-.018.027-.028.227-.18.463-.34.7-.5a14.308 14.308 0 014.674-2.078A14.868 14.868 0 0113.091 16c2.399 0 4.666.576 6.658 1.615h.01c1.71.878 3.22 2.087 4.439 3.542.67.774 1.246 1.624 1.719 2.521a13.974 13.974 0 01.906 2.03c.16.473.302.964.425 1.455.085.35.151.709.208 1.068.019.113.038.217.047.33.095.652.142 1.322.142 2.002z" fill="#FF6F00"/><path d="M25.709 30.563v.095c0 .32-.028.727-.057 1.161-.028.322-.056.652-.085.964a7.558 7.558 0 01-.925.15h-.01a8.142 8.142 0 01-1.076.067h-1.653l-.359-.104-1.86-.567-1.89-.566-4.372-1.313-1.89-.567s-.783.312-1.888.68h-.01a61.77 61.77 0 01-1.378.444c-.614.18-1.266.36-1.908.5-.661.152-1.313.265-1.898.312-.18.02-.36.029-.52.029A9.712 9.712 0 01.568 28.75c.066-.425.142-.84.255-1.247.283-1.124.727-2.2 1.313-3.182.32-.558.68-1.096 1.095-1.597a.168.168 0 01.066-.075c-.01-.01 0-.01 0-.01.123-.16.255-.311.388-.453v-.01c.387-.415.783-.812 1.218-1.18.151-.123.293-.245.453-.368.029-.029.057-.047.095-.076a12.567 12.567 0 017.64-2.606c3.25 0 6.205 1.218 8.444 3.22a12.657 12.657 0 012.682 3.428c.056.095.113.199.16.303.085.17.17.35.246.538.311.68.557 1.398.727 2.134l.057.227a12.632 12.632 0 01.302 2.767z" fill="#FF9800"/><path d="M23.763 30.563c0 .19-.01.397-.019.614-.018.35-.047.727-.094 1.115a9.089 9.089 0 01-.095.708H18.38l-1.001-.16-3.91-.624-.557-.085-1.275-.208c-.558 0-1.766.246-3.041.482-.671.123-1.351.255-1.965.34l-.217.028h-.01a8.893 8.893 0 01-1.907-.642 7.917 7.917 0 01-.567-.283 9.61 9.61 0 01-1.502-1.03c-.01-.113-.019-.208-.019-.255 0-.245.01-.481.029-.717.038-.605.123-1.19.255-1.757.208-.86.51-1.69.916-2.456.075-.16.16-.32.255-.472.038-.076.085-.142.123-.217.17-.274.359-.538.547-.803.397-.52.841-1.01 1.313-1.454h.01c.037-.038.075-.076.113-.104.047-.038.085-.085.132-.114.19-.17.378-.32.576-.462 0-.01.01-.01.01-.01a10.654 10.654 0 016.403-2.115c1.87 0 3.608.472 5.128 1.303h.01a10.69 10.69 0 013.334 2.862c.35.453.66.935.925 1.445h.01l.141.283c.284.557.51 1.143.68 1.747h.01c.01.047.028.095.038.142.113.406.207.821.273 1.246l.029.265c.066.453.094.916.094 1.388z" fill="#FFC107"/><path d="M21.827 30.46c0 .15 0 .311-.019.462v.019a9.214 9.214 0 01-.264 1.955c0 .038-.01.066-.029.104h-4.41l-3.636-.784-.482-.104-.075.019-4.033.831-.18.038h-.255c-.604 0-1.199-.057-1.775-.17l-.255-.057h-.01a8.893 8.893 0 01-1.907-.642 3.54 3.54 0 01-.048-.312 7.865 7.865 0 01-.094-1.256c0-.16 0-.32.01-.481.028-.51.103-1.011.217-1.493.075-.358.18-.708.302-1.038a8.49 8.49 0 011.162-2.173 8.525 8.525 0 012.228-2.115 8.73 8.73 0 014.817-1.436c.35 0 .69.019 1.02.066h.019a8.57 8.57 0 012.824.822h.01a8.743 8.743 0 013.787 3.589c.103.18.198.368.283.557.132.293.255.604.359.916h.01c.103.35.198.699.264 1.067v.01c.103.52.16 1.058.16 1.605z" fill="#FFD54F"/><path d="M19.882 30.658v.028a6.86 6.86 0 01-.199 1.643 4.193 4.193 0 01-.198.67h-4.231l-2.163-.594-2.163.595H8.444c-.604 0-1.2-.057-1.775-.17-.02-.028-.029-.057-.038-.085a6.183 6.183 0 01-.283-1.237 6.217 6.217 0 01-.057-.85c0-.114 0-.236.019-.35.01-.444.075-.878.189-1.294.056-.283.141-.557.255-.821.038-.133.094-.255.16-.378.142-.321.312-.633.5-.935.209-.302.435-.586.69-.85.303-.34.643-.652 1.03-.907a6.317 6.317 0 012.238-1.039 6.452 6.452 0 011.719-.226c1.889 0 3.58.755 4.807 1.974.047.047.104.103.151.17h.01c.132.141.255.283.378.443.349.444.642.926.868 1.455.114.245.208.5.284.765.01.038.019.066.028.104.132.463.217.944.236 1.445.02.141.029.293.029.444z" fill="#FFE082"/><path d="M17.946 30.658c0 .387-.048.755-.152 1.105a4.796 4.796 0 01-.415 1.076c-.028.057-.095.161-.095.161H8.899a.071.071 0 01-.02-.038 3.091 3.091 0 01-.282-.557 4.335 4.335 0 01-.34-1.398c-.02-.113-.02-.236-.02-.35 0-.056 0-.122.01-.179.01-.415.066-.812.18-1.18.094-.34.217-.652.377-.954 0 0 .01-.01.01-.019.113-.198.236-.397.378-.585a4.72 4.72 0 011.785-1.464h.009c.227-.114.463-.208.708-.274h.01a4.791 4.791 0 011.388-.199c.557 0 1.096.085 1.587.265.18.047.35.123.52.208h.009a4.715 4.715 0 011.974 1.747c.094.142.179.293.255.453.037.066.075.142.104.208.217.491.349 1.03.387 1.596.01.047.01.095.01.151.009.076.009.151.009.227z" fill="#FFECB3"/><path d="M19.692 8h-7.384A4.281 4.281 0 008 12.308v7.384C8 22.092 9.908 24 12.308 24h7.384c2.4 0 4.308-1.908 4.308-4.308v-7.384C24 9.908 22.092 8 19.692 8z" stroke="#fff" stroke-width="1.846" stroke-miterlimit="10" stroke-linecap="round" stroke-linejoin="round"/><path d="M20.308 11.692a.615.615 0 100-1.23.615.615 0 000 1.23z" fill="#fff"/><path d="M16 19.692a3.692 3.692 0 100-7.384 3.692 3.692 0 000 7.384z" stroke="#fff" stroke-width="1.846" stroke-miterlimit="10" stroke-linecap="round" stroke-linejoin="round"/></g></symbol>
<symbol id="i-telegram" viewBox="0 0 32 32" fill="none" xmlns="http://www.w3.org/2000/svg"><path d="M16 32c8.837 0 16-7.163 16-16S24.837 0 16 0 0 7.163 0 16s7.163 16 16 16z" fill="#039BE5"/><path d="M7.321 15.653l15.427-5.948c.716-.258 1.341.175 1.11 1.258v-.002l-2.626 12.375c-.195.877-.716 1.09-1.445.677l-4-2.948-1.93 1.859c-.213.213-.393.393-.806.393l.284-4.07 7.413-6.698c.323-.284-.072-.444-.497-.161l-9.162 5.768-3.949-1.232c-.857-.272-.876-.857.181-1.27z" fill="#fff"/></symbol>
<symbol id="i-tw" xmlns="http://www.w3.org/2000/svg" viewBox="0 0 13 10"><path fill="currentColor" d="M12.308 1.184a5.26 5.26 0 01-1.454.398 2.509 2.509 0 001.11-1.394 5.042 5.042 0 01-1.6.61 2.522 2.522 0 00-4.365 1.725c0 .2.017.393.059.576A7.142 7.142 0 01.857.46a2.527 2.527 0 00.775 3.372 2.492 2.492 0 01-1.14-.31v.027c0 1.226.875 2.245 2.022 2.48-.206.056-.43.083-.662.083a2.23 2.23 0 01-.477-.044 2.547 2.547 0 002.357 1.758A5.07 5.07 0 010 8.868 7.103 7.103 0 003.87 10c4.644 0 7.182-3.846 7.182-7.18 0-.112-.004-.22-.009-.326.5-.356.922-.8 1.265-1.31z"/></symbol>
<symbol id="i-twitter" viewBox="0 0 32 32" fill="none" xmlns="http://www.w3.org/2000/svg"><path d="M16 0C7.164 0 0 7.164 0 16s7.164 16 16 16 16-7.164 16-16S24.836 0 16 0z" fill="#000"/><path d="M17.75 14.552L24.6 6.59h-1.623l-5.948 6.913-4.75-6.913H6.801l7.183 10.454-7.183 8.35h1.623l6.28-7.301 5.017 7.3h5.478l-7.449-10.84zM9.01 7.812h2.493l11.475 16.415h-2.493L9.01 7.812z" fill="#fff"/></symbol>
<symbol id="i-vk" xmlns="http://www.w3.org/2000/svg" viewBox="0 0 18 10"><path fill="currentColor" d="M17.434 9.031a1.2 1.2 0 00-.06-.114c-.303-.548-.884-1.22-1.742-2.017l-.018-.018-.01-.01-.009-.008h-.009c-.39-.371-.636-.62-.739-.749-.189-.243-.231-.49-.128-.739.073-.189.347-.587.821-1.195.25-.323.448-.581.594-.776 1.052-1.4 1.508-2.293 1.368-2.683l-.054-.09c-.036-.056-.13-.106-.283-.151a1.437 1.437 0 00-.584-.023l-2.628.018a.341.341 0 00-.183.005l-.118.027-.046.023-.036.027a.406.406 0 00-.1.096.626.626 0 00-.092.16 14.92 14.92 0 01-.976 2.053 19.44 19.44 0 01-.62.981 4.72 4.72 0 01-.475.611 3.31 3.31 0 01-.347.315c-.104.08-.183.113-.237.1a6.687 6.687 0 01-.156-.036.607.607 0 01-.205-.224 1.001 1.001 0 01-.105-.356 3.924 3.924 0 01-.032-.37 7.721 7.721 0 01.005-.437c.006-.189.009-.317.009-.383 0-.232.005-.483.014-.753l.022-.644c.007-.158.01-.325.01-.502a2.13 2.13 0 00-.032-.415 1.42 1.42 0 00-.096-.292.492.492 0 00-.187-.219A1.054 1.054 0 009.664.12 6.115 6.115 0 008.432 0c-1.131-.012-1.858.061-2.18.22a1.23 1.23 0 00-.348.273c-.11.134-.124.207-.045.219.365.055.623.186.775.392l.055.11c.043.08.085.22.128.42.042.2.07.423.082.666.03.444.03.824 0 1.14-.03.317-.06.563-.087.74a1.48 1.48 0 01-.232.63.157.157 0 01-.046.045.684.684 0 01-.246.046c-.086 0-.189-.043-.31-.128a2.19 2.19 0 01-.38-.352 4.697 4.697 0 01-.442-.625 10.908 10.908 0 01-.511-.949l-.146-.264c-.091-.17-.216-.419-.374-.744a14.34 14.34 0 01-.42-.945.602.602 0 00-.219-.292L3.44.576a.969.969 0 00-.356-.137l-2.5.018C.33.457.155.515.064.631L.027.685A.295.295 0 000 .832c0 .066.018.149.055.246.365.858.762 1.685 1.19 2.482.43.797.802 1.439 1.118 1.925.317.487.64.947.968 1.378.328.432.546.71.652.83.107.123.19.214.251.275l.228.219c.146.146.36.32.644.524.283.204.596.405.94.603a5.1 5.1 0 001.2.483c.456.125.9.175 1.332.151h1.05c.212-.018.374-.085.483-.2l.037-.047a.605.605 0 00.068-.168.927.927 0 00.032-.251 3.007 3.007 0 01.06-.707 1.86 1.86 0 01.154-.475 1.166 1.166 0 01.352-.401.596.596 0 01.073-.032c.146-.049.318-.002.515.141.198.143.384.32.557.53.174.21.382.445.625.707.244.261.457.456.639.584l.182.11c.122.072.28.14.475.2.195.061.365.076.511.046l2.336-.037c.231 0 .411-.038.539-.114.127-.076.203-.16.228-.25a.707.707 0 00.004-.311 1.145 1.145 0 00-.064-.242z"/></symbol>
</svg>