<?xml version="1.0" encoding="UTF-8"?>
<svg version="1.1" xmlns="http://www.w3.org/2000/svg" xmlns:xlink="http://www.w3.org/1999/xlink">
<defs>
<clipPath id="clip0_3639_94578"><path fill="#fff" transform="translate(9 9)" d="M0 0h12v12H0z"/></clipPath>
<clipPath id="clip0_28078_7739"><path fill="#fff" transform="translate(27 27)" d="M0 0h36v36H0z"/></clipPath>
<clipPath id="clip0_5577_6659"><path fill="#fff" d="M0 0h20v20H0z"/></clipPath>
<clipPath id="clip0_6905_17890"><path fill="#fff" d="M0 0h24v24H0z"/></clipPath>
<clipPath id="clip0_6072_136046"><path fill="#fff" transform="translate(.426)" d="M0 0h79.148v100H0z"/></clipPath>
<clipPath id="clip0_4152_106967"><path fill="#fff" d="M0 0h64v64H0z"/></clipPath>
<linearGradient id="paint0_linear" x1="-.986" y1="16" x2="45.584" y2="16" gradientUnits="userSpaceOnUse"><stop stop-color="#E93E3A"/><stop offset=".353" stop-color="#ED683C"/><stop offset=".703" stop-color="#F3903F"/><stop offset="1" stop-color="#FDC70C"/></linearGradient><linearGradient id="paint1_linear" x1="-.986" y1="9.299" x2="45.584" y2="9.299" gradientUnits="userSpaceOnUse"><stop stop-color="#E93E3A"/><stop offset=".353" stop-color="#ED683C"/><stop offset=".703" stop-color="#F3903F"/><stop offset="1" stop-color="#FDC70C"/></linearGradient><linearGradient id="paint2_linear" x1="-.986" y1="9.299" x2="45.584" y2="9.299" gradientUnits="userSpaceOnUse"><stop stop-color="#E93E3A"/><stop offset=".353" stop-color="#ED683C"/><stop offset=".703" stop-color="#F3903F"/><stop offset="1" stop-color="#FDC70C"/></linearGradient><linearGradient id="paint3_linear" x1="-.986" y1="22.365" x2="45.584" y2="22.365" gradientUnits="userSpaceOnUse"><stop stop-color="#E93E3A"/><stop offset=".353" stop-color="#ED683C"/><stop offset=".703" stop-color="#F3903F"/><stop offset="1" stop-color="#FDC70C"/></linearGradient><clipPath id="clip0"><path fill="#fff" d="M0 0h32v32H0z"/></clipPath>
<clipPath id="clip0_3615_93239"><path fill="#fff" d="M0 0h19v15H0z"/></clipPath>
</defs>
<symbol id="i-alert" viewBox="0 0 24 24" fill="none" xmlns="http://www.w3.org/2000/svg"><path fill-rule="evenodd" clip-rule="evenodd" d="M12 21a9 9 0 100-18 9 9 0 000 18z" fill="#EB5757"/><path d="M12 8v4M12 16h.01" stroke="#fff" stroke-width="2" stroke-linecap="round" stroke-linejoin="round"/></symbol>
<symbol id="i-arrow-breadcrumbs" viewBox="0 0 24 24" fill="none" xmlns="http://www.w3.org/2000/svg"><path d="M11 14l2-2-2-2" stroke="#fff" stroke-width="2" stroke-linecap="round" stroke-linejoin="round"/></symbol>
<symbol id="i-arrow-down" xmlns="http://www.w3.org/2000/svg" viewBox="0 0 24 24"><path fill="none" stroke="currentColor" stroke-linecap="round" stroke-linejoin="round" stroke-width="2" d="M6 13l6 6 6-6m-6 6V5"/></symbol>
<symbol id="i-arrow-left" xmlns="http://www.w3.org/2000/svg" viewBox="0 0 24 24"><path fill="none" fill-rule="evenodd" stroke="currentColor" stroke-linecap="round" stroke-linejoin="round" stroke-width="2" d="M11 18l-6-6 6-6m-6 6h14"/></symbol>
<symbol id="i-arrow-right" xmlns="http://www.w3.org/2000/svg" viewBox="0 0 24 24"><path fill="none" fill-rule="evenodd" stroke="currentColor" stroke-linecap="round" stroke-linejoin="round" stroke-width="2" d="M13 18l6-6-6-6m6 6H5"/></symbol>
<symbol id="i-arrow-up" xmlns="http://www.w3.org/2000/svg" viewBox="0 0 24 24"><path fill="none" stroke="currentColor" stroke-linecap="round" stroke-linejoin="round" stroke-width="2" d="M6 11l6-6 6 6m-6-6v14"/></symbol>
<symbol id="i-arrow-lopa-left" viewBox="0 0 16 14" fill="none" xmlns="http://www.w3.org/2000/svg"><mask id="a" fill="#fff"><path fill-rule="evenodd" clip-rule="evenodd" d="M6.293.293a1 1 0 011.414 1.414L3.414 6H15a1 1 0 110 2H3.414l4.293 4.293a1 1 0 11-1.414 1.414l-6-6A.997.997 0 010 7.003m.286-.704zM6.293.293l-6 6z"/></mask><path d="M6.293.293l-.707-.707A1 1 0 017.022.977l-.73-.684zM.729 7.687A1 1 0 01-.729 6.32L.729 7.687zM1.001 7A1 1 0 01-.414 5.585L1.001 7zm-1.73-.68l6.292-6.71L7.023.977.728 7.687-.729 6.32zM7 1L1 7-.413 5.584l6-6L7 1zm.707-.707L6.293 1.707 7.707.293zm-1.414 0l1.414 1.414L6.293.293zm1.414 1.414l1.414 1.414-1.414-1.414zM3.414 6v2A2 2 0 012 4.586L3.414 6zm0 2L2 9.414A2 2 0 013.414 6v2zm4.293 4.293l-1.414 1.414 1.414-1.414zm0 1.414l-1.414-1.414 1.414 1.414zm-1.414 0l1.414-1.414-1.414 1.414zM.286 7.701L-1.14 9.102.285 7.7zM-2 7.009a2 2 0 014-.012l-4 .012zm2.286-.71L-1.14 4.9A2 2 0 011.714 7.7L.286 6.299zm-.21.318l1.847.766a2 2 0 01-3.695-1.53l1.848.764zm1.632 1.09a2 2 0 01-2.829-2.829l2.829 2.828zm4.585-6a1 1 0 001.414 0L4.88-1.12a3 3 0 014.242 0L6.293 1.707zm0-1.414a1 1 0 000 1.414L9.12-1.12a3 3 0 010 4.242L6.293.293zM2 4.586L6.293.293 9.12 3.12 4.828 7.414 2 4.586zM15 8H3.414V4H15v4zm-1-1a1 1 0 001 1V4a3 3 0 013 3h-4zm1-1a1 1 0 00-1 1h4a3 3 0 01-3 3V6zM3.414 6H15v4H3.414V6zm2.879 7.707L2 9.414l2.828-2.828 4.293 4.293-2.828 2.828zm0-1.414a1 1 0 000 1.414L9.12 10.88a3 3 0 010 4.242l-2.828-2.828zm1.414 0a1 1 0 00-1.414 0L9.12 15.12a3 3 0 01-4.242 0l2.828-2.828zm-6-6l6 6L4.88 15.12l-6-6 2.829-2.827zm0 0L-1.12 9.123l2.828-2.83zm.006.006a1.136 1.136 0 00-.006-.006L-1.12 9.12a3.125 3.125 0 01-.02-.019l2.854-2.803zM2 6.997c0-.249-.097-.504-.287-.698L-1.14 9.102A2.997 2.997 0 01-2 7.009l4-.012zm-.287.704c.09-.092.162-.201.21-.32l-3.695-1.528c.144-.349.356-.674.631-.955l2.854 2.803zm0 0a.999.999 0 00.21-.318l-3.695-1.532c.15-.36.365-.682.631-.953l2.855 2.803zm5.994-5.994l-6 6-2.828-2.829 6-6 2.828 2.83z" fill="#5A0D56" mask="url(#a)"/></symbol>
<symbol id="i-arrow-lopa-right" viewBox="0 0 16 14" fill="none" xmlns="http://www.w3.org/2000/svg"><path fill-rule="evenodd" clip-rule="evenodd" d="M9.707.293a1 1 0 00-1.414 1.414L12.586 6H1a1 1 0 000 2h11.586l-4.293 4.293a1 1 0 101.414 1.414l6-6A.997.997 0 0016 7.003m-.286-.704zM9.707.293l6 6z" fill="#5A0D56"/></symbol>
<symbol id="i-balance-chevron" viewBox="0 0 16 16" fill="none" xmlns="http://www.w3.org/2000/svg"><path d="M5.333 6.667L8 9.333l2.667-2.666" stroke="#E4E4E9" stroke-width="2" stroke-linecap="round" stroke-linejoin="round"/></symbol>
<symbol id="i-books" xmlns="http://www.w3.org/2000/svg" viewBox="0 0 36.8 36.8"><path class="st0" d="M34.3 4.4l-.1-.1s0-.1-.1-.1c-.2-.3-.4-.6-.7-.8-.3-.3-.6-.6-.9-.8 0 0-.1 0-.1-.1l-.1-.1C29.9 1 24.5 0 18.4 0c-3.1 0-6 .2-8.4.7-.8.1-2.2.4-2.7.6-1.1.3-2.1.7-2.8 1.2l-.1.1s-.1 0-.1.1c-.4.1-.7.4-.9.7-.3.2-.6.5-.8.8 0 0-.1.1-.1.2v.1C1 6.9 0 12.2 0 18.4s1 11.5 2.5 13.9c.2.4.5.7.8 1 .4.4.8.7 1.2 1 1.6.9 3.7 1.4 4 1.5 2.7.6 6.2 1 10 1 6.1 0 11.4-.9 13.8-2.4.9-.6 1.6-1.3 2.1-2 1.5-2.5 2.5-7.8 2.5-14-.1-6.2-1.1-11.5-2.6-14zm-7.9 26.3c-.2.3-.4.6-.6.8-.5.3-1.2.7-2.2 1 0-.1.1-.1.1-.2 1.5-2.4 2.5-7.8 2.5-14s-1-11.5-2.5-13.9c0-.1-.1-.1-.1-.2.8.3 1.5.5 1.9.8.1.1.3.2.5.4.1.1.3.3.3.4v.1c1 1.6 2 6.1 2 12.4s-.9 10.9-1.9 12.4zm-21 .5c-.1-.1-.3-.3-.4-.5-1-1.6-2-6.1-2-12.4C3 12.1 4.1 7.6 5 6c0 0 0-.1.1-.1.1-.1.2-.3.4-.4l.4-.4H6c.8-.5 2.4-1 4.6-1.4 4.4-.7 7.9.2 9.7 1.4.1.1.3.2.5.4.1.1.3.3.3.4V6c1 1.6 2 6.1 2 12.4s-1.1 10.8-2 12.4c-.2.3-.4.7-.9 1-1.8 1.1-5.9 2-11.1 1.1-1.5-.3-2.6-.7-3.2-1.1-.1-.2-.3-.4-.5-.6zm26.3-.4c-.2.3-1 1.3-2.9 1.8 0-.1.1-.1.2-.2 1.5-2.4 2.5-7.8 2.5-14s-1-11.6-2.5-14c0 0 0-.1-.1-.1v-.1c.8.3 1.5.5 1.9.8.1.1.3.2.5.4.1.1.3.3.3.4v.1c1 1.6 2 6.1 2 12.4.2 6.4-.9 10.9-1.9 12.5z"/></symbol>
<symbol id="i-card-item-nav" viewBox="0 0 18 10" fill="none" xmlns="http://www.w3.org/2000/svg"><path d="M17.351 2.417a1 1 0 000-1.48L16.992.61a1 1 0 00-1.344 0L9.672 6.036a1 1 0 01-1.344 0L2.352.61a1 1 0 00-1.345 0L.65.936a1 1 0 000 1.48l6.504 5.907L8.328 9.39a1 1 0 001.344 0l1.174-1.067 6.505-5.906z" fill="#fff"/></symbol>
<symbol id="i-casino" viewBox="0 0 24 24" fill="none" xmlns="http://www.w3.org/2000/svg"><path d="M12 2C6.477 2 2 6.477 2 12s4.477 10 10 10 10-4.477 10-10S17.523 2 12 2zm4.981 2.597l-.637.942a7.74 7.74 0 00-2.855-1.181l.224-1.115a8.815 8.815 0 013.268 1.354zm-4.464 11.841V17.6h-.944v-1.155c-.675-.074-1.308-.333-1.784-.775-.476-.443-.694-1.094-.678-1.953l.024-.03h1.668c0 .54.12.899.36 1.125.24.226.545.34.916.34.355 0 .627-.095.816-.284.19-.19.284-.444.284-.764 0-.316-.09-.574-.272-.773-.181-.199-.493-.384-.933-.556-.867-.316-1.51-.668-1.929-1.056-.42-.388-.63-.935-.63-1.642 0-.655.195-1.193.614-1.612.42-.42 1.004-.666 1.678-.74V6.467h.945v1.267c.675.102 1.235.388 1.627.86.392.473.59 1.078.581 1.831l-.013.022H13.18c0-.472-.094-.808-.284-1.058-.189-.25-.447-.37-.775-.37-.336 0-.585.097-.75.29-.163.194-.245.451-.245.771 0 .305.087.552.26.74.174.19.493.377.957.56.863.34 1.502.703 1.917 1.089.416.386.623.927.623 1.621 0 .679-.226 1.222-.644 1.627-.417.406-.979.646-1.72.72zm-2.23-13.195l.216 1.116a7.742 7.742 0 00-2.854 1.184l-.63-.946a8.815 8.815 0 013.268-1.354zm-5.69 3.776l.942.637a7.74 7.74 0 00-1.181 2.855l-1.115-.224A8.818 8.818 0 014.597 7.02zm0 9.962a8.815 8.815 0 01-1.354-3.269l1.116-.215a7.741 7.741 0 001.184 2.854l-.946.63zm2.422 2.422l.637-.942a7.74 7.74 0 002.855 1.181l-.224 1.115a8.817 8.817 0 01-3.268-1.354zm6.694 1.354l-.216-1.116a7.742 7.742 0 002.854-1.184l.63.946a8.816 8.816 0 01-3.269 1.354zm5.69-3.776l-.942-.637a7.74 7.74 0 001.181-2.855l1.115.224a8.817 8.817 0 01-1.354 3.268zm.238-6.478a7.74 7.74 0 00-1.184-2.854l.946-.63a8.816 8.816 0 011.354 3.268l-1.117.216z" fill="currentColor"/></symbol>
<symbol id="i-chat" fill="none" xmlns="http://www.w3.org/2000/svg" viewBox="0 0 24 24"><path clip-rule="evenodd" d="M20 11.6a7.6 7.6 0 01-11 6.8L4 20l1.7-5a7.6 7.6 0 016.8-11h.4c3.8.2 6.9 3.3 7.1 7.1v.5z" stroke="#8E919E" stroke-width="2" stroke-linecap="round" stroke-linejoin="round"/></symbol>
<symbol id="i-chevron-down" xmlns="http://www.w3.org/2000/svg" viewBox="0 0 10 6"><path fill="none" stroke="currentColor" stroke-linecap="round" stroke-linejoin="round" stroke-miterlimit="50" stroke-width="2" d="M1 1v0l4 4v0l4-4v0"/></symbol>
<symbol id="i-chevron-right" xmlns="http://www.w3.org/2000/svg" viewBox="0 0 24 24"><path fill="none" stroke="currentColor" stroke-linecap="round" stroke-linejoin="round" stroke-width="2" d="M10 16l4-4-4-4"/></symbol>
<symbol id="i-chevron-up" viewBox="0 0 18 18" fill="none" xmlns="http://www.w3.org/2000/svg"><path d="M1.565 11.25a1 1 0 000 1.481l.175.159a1 1 0 001.344 0l5.244-4.762a1 1 0 011.344 0l5.244 4.762a1 1 0 001.344 0l.175-.159a1 1 0 000-1.48l-5.773-5.242-.99-.899a1 1 0 00-1.344 0l-.99.899-5.773 5.242z" fill="#FCC054"/></symbol>
<symbol id="i-chevron" xmlns="http://www.w3.org/2000/svg" viewBox="0 0 24 24"><path fill="none" stroke="currentColor" stroke-linecap="round" stroke-linejoin="round" stroke-width="2" d="M8 10l4 4 4-4"/></symbol>
<symbol id="i-chevronnew" viewBox="0 0 8 12" fill="none" xmlns="http://www.w3.org/2000/svg"><path d="M7.964 5.606L.92.105A.125.125 0 00.72.203v1.208c0 .077.036.15.095.197L6.439 6 .814 10.392a.248.248 0 00-.095.197v1.208c0 .105.12.162.201.098l7.044-5.501a.5.5 0 000-.788z" fill="#fff"/></symbol>
<symbol id="i-close" viewBox="0 0 30 30" fill="none" xmlns="http://www.w3.org/2000/svg"><g opacity=".9"><circle cx="15" cy="15" r="15" fill="#372C55"/><g clip-path="url(#clip0_3639_94578)"><path d="M19.496 11.51a.712.712 0 00-1.007-1.006L15 13.993l-3.49-3.49a.712.712 0 00-1.006 1.008L13.993 15l-3.49 3.49a.712.712 0 001.008 1.006L15 16.007l3.49 3.49a.712.712 0 001.006-1.008L16.007 15l3.49-3.49z" fill="#CCC"/></g></g></symbol>
<symbol id="i-close-christmas" viewBox="0 0 90 90" fill="none" xmlns="http://www.w3.org/2000/svg"><g opacity=".9"><circle cx="45" cy="45" r="45" fill="#321B45"/><g clip-path="url(#clip0_28078_7739)"><path d="M58.49 34.532a2.137 2.137 0 00-3.022-3.021L45 41.979 34.532 31.51a2.137 2.137 0 00-3.021 3.021L41.979 45 31.51 55.468a2.137 2.137 0 003.021 3.021L45 48.021 55.468 58.49a2.137 2.137 0 003.021-3.021L48.021 45 58.49 34.532z" fill="#CCC"/></g></g></symbol>
<symbol id="i-close-gs" viewBox="0 0 16 16" fill="none" xmlns="http://www.w3.org/2000/svg"><path d="M15.493 2.185A1.187 1.187 0 0013.815.506L7.999 6.322 2.184.506A1.187 1.187 0 10.505 2.185L6.321 8 .505 13.816a1.187 1.187 0 101.679 1.678L7.999 9.68l5.816 5.815a1.187 1.187 0 101.678-1.678L9.678 8l5.815-5.815z" fill="#8A608D"/></symbol>
<symbol id="i-close-old" xmlns="http://www.w3.org/2000/svg" viewBox="0 0 24 24"><path fill="none" fill-rule="evenodd" stroke="currentColor" stroke-linecap="round" stroke-linejoin="round" stroke-width="2" d="M18 6L6 18M6 6l12 12"/></symbol>
<symbol id="i-collapse" viewBox="0 0 24 24" fill="none" xmlns="http://www.w3.org/2000/svg"><path fill="currentColor" fill-rule="evenodd" clip-rule="evenodd" d="M13.293 6.293a1 1 0 011.414 0L19 11c.276 0 .526.112.706.292h.001a1 1 0 010 1.415l-5 5a1 1 0 01-1.414-1.414L16.586 13H9a1 1 0 110-2h7.586l-3.293-3.293a1 1 0 010-1.414zM5 7a1 1 0 012 0v10a1 1 0 11-2 0V7z"/></symbol>
<symbol id="i-delete" viewBox="0 0 18 20" xmlns="http://www.w3.org/2000/svg"><path fill-rule="evenodd" clip-rule="evenodd" d="M4.238 20c-1.31 0-2.381-1-2.381-2.222V4.444h14.286v13.334C16.143 19 15.07 20 13.762 20H4.238zm8.928-18.889h4.167v2.222H.667V1.111h4.166L6.023 0h5.953l1.19 1.111zm-3.24 6.162H8.074v10h1.852v-10zm1.852 0h1.851v10h-1.851v-10zm-5.556 0H4.37v10h1.852v-10z"/></symbol>
<symbol id="i-download" viewBox="0 0 24 24" xmlns="http://www.w3.org/2000/svg"><path d="M12 16.4a.718.718 0 01-.542-.255l-5.25-6.05C5.753 9.57 6.091 8.7 6.75 8.7H9.5V2.375C9.5 1.617 10.061 1 10.75 1h2.5c.689 0 1.25.617 1.25 1.375V8.7h2.75c.659 0 .997.871.542 1.395l-5.25 6.05A.718.718 0 0112 16.4zM22.25 23H1.75C.785 23 0 22.137 0 21.075v-.55C0 19.464.785 18.6 1.75 18.6h20.5c.965 0 1.75.863 1.75 1.925v.55C24 22.137 23.215 23 22.25 23z"/></symbol>
<symbol id="i-edit" viewBox="0 0 20 20" xmlns="http://www.w3.org/2000/svg"><path d="M11.066 4.925l-1.63 1.613c-.6.594-1.203 1.189-1.8 1.79-.141.143-.247.333-.288.52-.217.981-.426 1.962-.635 2.944l-.117.543a.769.769 0 00.2.71c.14.14.335.217.541.217.059 0 .117-.006.175-.017l.604-.125c.96-.2 1.924-.404 2.885-.601.223-.048.412-.146.573-.306 2.696-2.673 5.392-5.342 8.089-8.008a1.12 1.12 0 00.336-.72.47.47 0 00-.01-.14c-.018-.067-.031-.138-.049-.206-.037-.174-.079-.37-.16-.56-.505-1.142-1.342-1.957-2.488-2.415-.23-.092-.473-.123-.686-.15l-.058-.006c-.309-.038-.59.064-.834.309a2935.846 2935.846 0 01-4.648 4.608z"/><path d="M1.782 2.737h8a.56.56 0 00.563-.557.56.56 0 00-.564-.558H1.782C.797 1.622 0 2.415 0 3.386v14.85C0 19.21.802 20 1.782 20h14.995c.985 0 1.782-.794 1.782-1.764v-7.598a.56.56 0 00-.563-.557.56.56 0 00-.564.558v7.597a.66.66 0 01-.66.653H1.783a.66.66 0 01-.66-.653V3.39a.66.66 0 01.66-.654z"/></symbol>
<symbol id="i-eye-hide" viewBox="0 0 20 20" fill="none" xmlns="http://www.w3.org/2000/svg"><g clip-path="url(#clip0_5577_6659)" fill="#fff"><path d="M17.332 17.5a.701.701 0 01-.471-.183L2.195 3.557a.605.605 0 01-.183-.44.607.607 0 01.195-.434.689.689 0 01.463-.183.691.691 0 01.468.172l14.665 13.76a.614.614 0 01.182.32.59.59 0 01-.038.362.635.635 0 01-.245.28.699.699 0 01-.37.106zM9.666 12.334l-2.158-2.025a.088.088 0 00-.096-.014.081.081 0 00-.036.033.074.074 0 00-.01.048c.088.525.35 1.01.751 1.386.4.376.919.623 1.478.704.018.003.035 0 .05-.008a.081.081 0 00.036-.034.074.074 0 00-.015-.09zM10.332 7.655l2.161 2.027a.088.088 0 00.096.015.08.08 0 00.037-.034.073.073 0 00.01-.047 2.456 2.456 0 00-.752-1.39 2.739 2.739 0 00-1.48-.704.088.088 0 00-.05.008.081.081 0 00-.037.034.075.075 0 00.015.09z"/><path d="M19.79 10.673c.138-.203.21-.44.21-.68 0-.24-.075-.477-.214-.679a13.706 13.706 0 00-4.136-3.93C13.874 4.308 11.916 3.74 9.986 3.74a10.005 10.005 0 00-2.992.46.168.168 0 00-.07.043.147.147 0 00-.037.148.155.155 0 00.042.069l1.968 1.846a.177.177 0 00.16.041 4.254 4.254 0 012.025.033 4.065 4.065 0 011.749.96 3.71 3.71 0 011.023 1.641 3.53 3.53 0 01.035 1.901.147.147 0 000 .08c.008.026.023.05.043.069l2.832 2.658a.174.174 0 00.225.01 13.733 13.733 0 002.8-3.026zM10 13.747a4.219 4.219 0 01-1.749-.377 3.964 3.964 0 01-1.396-1.056 3.656 3.656 0 01-.764-1.522 3.527 3.527 0 01.02-1.682.147.147 0 000-.08.154.154 0 00-.043-.07L3.283 6.348a.174.174 0 00-.225-.009C2.042 7.15 1.1 8.14.238 9.298c-.15.203-.233.443-.238.69-.005.248.07.491.212.7 1.1 1.615 2.516 2.976 4.095 3.934 1.778 1.08 3.689 1.627 5.679 1.627a10.524 10.524 0 003.026-.451.17.17 0 00.071-.043.148.148 0 00-.004-.217l-1.977-1.855a.178.178 0 00-.159-.041 4.25 4.25 0 01-.944.105z"/></g></symbol>
<symbol id="i-eye" xmlns="http://www.w3.org/2000/svg" viewBox="0 0 24 24"><path d="M12.015 7c4.751 0 8.063 3.012 9.504 4.636C20.118 13.473 16.806 17 12.015 17c-4.42 0-7.93-3.536-9.478-5.407C4.03 9.946 7.354 7 12.015 7zm0-2C4.446 5 0 11.551 0 11.551S4.835 19 12.015 19C19.748 19 24 11.551 24 11.551S19.709 5 12.015 5zM12 12L8.64 9.829a4 4 0 101.327-1.275L12 12z"/></symbol>
<symbol id="i-favorite" xmlns="http://www.w3.org/2000/svg" viewBox="0 0 24 24"><path fill="none" fill-rule="evenodd" stroke="currentColor" stroke-linecap="round" stroke-linejoin="round" stroke-width="2" d="M18.766 6.234a4.21 4.21 0 00-5.955 0L12 7.045l-.812-.811a4.21 4.21 0 00-5.955 5.955l.812.811L12 18.955 17.955 13l.811-.811a4.21 4.21 0 000-5.955z"/></symbol>
<symbol id="i-fruits" xmlns="http://www.w3.org/2000/svg" viewBox="0 0 35.6 36.1"><path class="st0" d="M17.3 11.2h1c1.6 0 4.6-.3 6.6-2.3 2.7-2.7 2.3-7.4 2.2-7.6C27 .6 26.5 0 25.8 0c-.2 0-4.8-.5-7.6 2.2C15.5 5 16 9.7 16 9.9c.1.7.6 1.2 1.3 1.3zm3-6.8c1-1 2.6-1.3 3.8-1.4-.1 1.2-.4 2.8-1.4 3.8-1 1-2.6 1.3-3.8 1.4.1-1.1.4-2.8 1.4-3.8zM11.4 15.9c-1.8-.3-3.2.1-4.2.9-1 .9-1.5 2.3-1.4 4.2 0 .8.7 1.5 1.5 1.5s1.5-.7 1.5-1.5c0-.9.1-1.6.4-1.8.3-.2.9-.3 1.8-.2.8.1 1.6-.5 1.7-1.3.1-.9-.5-1.7-1.3-1.8z"/><path class="st0" d="M32.3 12.7c-2.7-2.2-7-2.7-12.6-1.4-1.4.3-2.4.3-3.8 0-5.6-1.3-9.8-.8-12.6 1.4C1.1 14.5 0 17.3 0 21c0 7.7 3.9 11.4 6.2 12.9 3.5 2.4 7.3 2.5 9.4 1.7 1.4-.6 3-.6 4.5 0 .7.3 1.6.5 2.7.5 2 0 4.4-.6 6.7-2.1s6.2-5.3 6.2-12.9c-.1-3.8-1.2-6.6-3.4-8.4zm-4.6 18.7c-2.6 1.8-5.4 1.9-6.5 1.4-1.1-.5-2.2-.7-3.4-.7-1.1 0-2.3.2-3.4.7-1.1.5-3.9.3-6.5-1.4C5.6 30 3 27 3 21c0-2.8.7-4.8 2.2-6 2-1.6 5.4-1.8 10-.8 1.9.4 3.2.4 5.1 0 4.6-1 8.1-.8 10 .8 1.5 1.2 2.2 3.2 2.2 6 .1 6-2.5 9-4.8 10.4z"/></symbol>
<symbol id="i-gender-toggle-female" xmlns="http://www.w3.org/2000/svg" fill="none" viewBox="0 0 17 16"><path fill="#fff" d="M13.662 12.03l-2.554-.639-.147-.59c1.762-.296 2.668-.824 2.708-.848a.334.334 0 00.034-.55C13.691 9.393 12.5 8.409 12.5 5c0-2.875-.673-4.333-2-4.333h-.197C9.825.204 9.465 0 8.5 0c-1.253 0-4 1.26-4 5 0 3.41-1.191 4.393-1.2 4.4a.334.334 0 00.028.552c.04.024.938.555 2.71.85l-.147.59-2.554.638A3.742 3.742 0 00.5 15.667c0 .184.15.333.333.333h15.334c.184 0 .333-.15.333-.335a3.742 3.742 0 00-2.838-3.635z"/></symbol>
<symbol id="i-gender-toggle-man" xmlns="http://www.w3.org/2000/svg" fill="none" viewBox="0 0 17 16"><path fill="#fff" d="M13.662 12.03l-2.554-.639-.217-.869a4.597 4.597 0 001.29-2.56.999.999 0 00.722-.838l.167-1.333a.997.997 0 00-.638-1.058l.061-1.255.25-.25c.375-.4.686-1.084.036-2.077C12.279.387 11.429 0 10.253 0 9.79 0 8.721 0 7.727.668 4.887.728 4.5 2.047 4.5 3.333c0 .3.073.974.12 1.38a1.001 1.001 0 00-.69 1.078l.167 1.334c.054.434.384.776.802.858a4.625 4.625 0 001.226 2.481l-.232.929-2.554.638A3.74 3.74 0 00.5 15.667c0 .184.15.333.333.333h15.334c.184 0 .333-.15.333-.335a3.742 3.742 0 00-2.838-3.635z"/></symbol>
<symbol id="i-heart-lope" viewBox="0 0 24 24" fill="none" xmlns="http://www.w3.org/2000/svg"><g clip-path="url(#clip0_6905_17890)" fill="#FCC054"><path d="M23.349 6.463a10.988 10.988 0 00-1.183-3.68.983.983 0 00-.12-.149l-.058-.057a1.006 1.006 0 01-.108-.131c-.052-.057-.126-.155-.217-.246a3.96 3.96 0 00-.515-.463.796.796 0 00-.154-.12A10.909 10.909 0 0017.32.434a33.863 33.863 0 00-10.811 0c-1.286.173-2.53.574-3.675 1.183a1.08 1.08 0 00-.154.114l-.44.298a.891.891 0 00-.114.091 3.474 3.474 0 00-.463.537.863.863 0 00-.086.16A11.029 11.029 0 00.434 6.48a33.863 33.863 0 000 10.811c.167 1.274.554 2.51 1.143 3.652.14.259.32.493.537.691.216.229.467.422.743.572 1.141.6 2.38.997 3.657 1.171 3.58.58 7.231.58 10.812 0 1.28-.173 2.52-.57 3.662-1.171a.857.857 0 00.23-.143c.374-.318.7-.69.965-1.103a10.99 10.99 0 001.183-3.68c.579-3.58.579-7.23 0-10.811l-.017-.006zm-1.715 10.514a9.486 9.486 0 01-.943 3.063 3.06 3.06 0 01-.491.571c-.083.041-.16.093-.229.155-.943.453-1.951.756-2.988.897-3.367.555-6.801.566-10.172.034a9.388 9.388 0 01-3.062-.943h-.04a1.39 1.39 0 01-.349-.28.42.42 0 00-.074-.068.96.96 0 01-.206-.269l-.034-.063a9.39 9.39 0 01-.943-3.063 31.92 31.92 0 010-10.217A9.851 9.851 0 013 3.806a.886.886 0 00.177-.286l.086-.091.446-.298a.891.891 0 00.114-.091 9.989 9.989 0 012.988-.903c3.385-.54 6.833-.54 10.218 0a9.988 9.988 0 012.988.903l.097.08c.117.08.225.175.32.28l.109.131c.051.058.126.155.211.24.456.943.759 1.951.897 2.989a31.92 31.92 0 010 10.217h-.017z"/><path d="M17.326 8.726a1.989 1.989 0 00-1.178-.4h-2.617c1.018-1.68.835-3.2-.571-4.606a.857.857 0 00-1.212 0L5.92 9.549a.857.857 0 00-.251.605v5.315c0 .163.045.324.131.462.09.137.217.246.366.315.154.068 3.685 1.68 6.44 1.68h.188c.486.034.974-.03 1.434-.189.46-.163.88-.42 1.235-.754.285-.309.482-.687.571-1.097a2.285 2.285 0 00.88-2.057c.262-.252.459-.564.572-.909.109-.344.13-.709.063-1.063.261-.274.445-.614.531-.983a2.19 2.19 0 00-.034-1.143 2.012 2.012 0 00-.72-1.005zm-1.292 2.154a.852.852 0 00-.257 1.143c.086.171.166.474-.274.743a.869.869 0 00-.349.434.858.858 0 000 .571c.057.189.155.658-.263.835a.897.897 0 00-.377.337.91.91 0 00-.143.486.669.669 0 01-.2.44c-.406.303-.913.44-1.417.382-1.828.046-4.314-.88-5.354-1.308v-4.394l4.897-4.898c.36.658.263 1.526-1.143 2.972-.12.12-.2.273-.228.44a.805.805 0 00.051.491.851.851 0 00.789.526h4.4a.285.285 0 01.251.217c.046.234-.217.469-.383.583z"/></g></symbol>
<symbol id="i-heart" viewBox="0 0 20 19" fill="none" xmlns="http://www.w3.org/2000/svg"><path fill-rule="evenodd" clip-rule="evenodd" d="M18.42 1.426C17.484.493 16.166 0 14.61 0c-1.702 0-3.172.724-4.252 2.095-.125.159-.238.318-.34.473a6.29 6.29 0 00-.327-.467C8.63.727 7.143 0 5.39 0 3.834 0 2.516.493 1.58 1.426.53 2.471 0 3.998 0 5.964c0 1.908 1.116 4.198 3.318 6.805 1.679 1.989 3.73 3.829 5.09 4.887a2.588 2.588 0 003.185 0 35.204 35.204 0 002.511-2.175.781.781 0 00-1.074-1.134 33.472 33.472 0 01-2.397 2.076c-.373.29-.893.29-1.266 0-1.297-1.01-3.254-2.765-4.855-4.662-1.93-2.285-2.95-4.29-2.95-5.797 0-3.638 2.082-4.402 3.829-4.402 3.003 0 3.82 2.885 3.854 3.013 0 .004.002.007.003.011a.749.749 0 00.047.124l.01.021a.82.82 0 00.073.116l.006.008a.78.78 0 001.32-.142l.008-.018a.705.705 0 00.031-.08l.006-.017c.002-.008.247-.804.867-1.575.78-.969 1.787-1.46 2.993-1.46 1.747 0 3.829.763 3.829 4.4 0 1.458-.952 3.345-2.829 5.609a.782.782 0 001.204.997C18.957 9.98 20 7.82 20 5.964c0-1.966-.531-3.493-1.58-4.538z" fill="currentColor"/></symbol>
<symbol id="i-info" viewBox="0 0 16 16" xmlns="http://www.w3.org/2000/svg"><path fill-rule="evenodd" clip-rule="evenodd" d="M8 4.167c.49 0 .886.364.886.814v7.53c0 .449-.397.813-.886.813s-.885-.364-.885-.814V4.98c0-.449.396-.813.885-.813z"/><path d="M9.163 1.195c0 .66-.52 1.194-1.163 1.194-.642 0-1.162-.535-1.162-1.194C6.838.535 7.358 0 8 0c.642 0 1.163.535 1.163 1.195z"/><path fill-rule="evenodd" clip-rule="evenodd" d="M.667 4c0-.736.571-1.333 1.275-1.333h2.8c.353 0 .638.298.638.666 0 .369-.285.667-.637.667h-2.8v10.667h12.115V4h-2.8c-.352 0-.638-.298-.638-.667 0-.368.286-.666.638-.666h2.8c.705 0 1.276.597 1.276 1.333v10.667c0 .736-.571 1.333-1.276 1.333H1.942c-.704 0-1.275-.597-1.275-1.333V4z"/></symbol>
<symbol id="i-log-out" xmlns="http://www.w3.org/2000/svg" viewBox="0 0 20 20"><path fill="none" stroke="#fff" stroke-linecap="round" stroke-linejoin="round" stroke-miterlimit="50" stroke-width="2" d="M12 1h4a2 2 0 012 2v14a2 2 0 01-2 2h-4 0M7 5l-5 5 5 5m-5-5h11"/></symbol>
<symbol id="i-login" fill="none" xmlns="http://www.w3.org/2000/svg" viewBox="0 0 24 24"><path d="M14 2a1 1 0 100 2V2zm0 18a1 1 0 100 2v-2zm0-16h4V2h-4v2zm4 0a1 1 0 011 1h2a3 3 0 00-3-3v2zm1 1v14h2V5h-2zm0 14a1 1 0 01-1 1v2a3 3 0 003-3h-2zm-1 1h-4v2h4v-2z" fill="currentColor"/><path fill="currentColor" fill-rule="evenodd" clip-rule="evenodd" d="M10.707 6.293a1 1 0 00-1.414 1.414L12.586 11H4a1 1 0 100 2h8.586l-3.293 3.293a1 1 0 101.414 1.414l5-5a.997.997 0 00.293-.704m-.286-.704zm-5.007-5.006l5 5-5-5z"/></symbol>
<symbol id="i-lopo-close" viewBox="0 0 24 25" fill="none" xmlns="http://www.w3.org/2000/svg"><path d="M20.993 5.521a1.424 1.424 0 00-2.014-2.014L12 10.486 5.022 3.507a1.424 1.424 0 00-2.015 2.014l6.979 6.98-6.979 6.978a1.424 1.424 0 002.015 2.014L12 14.514l6.979 6.979a1.424 1.424 0 102.014-2.014L14.014 12.5l6.979-6.979z" fill="#FCC054"/></symbol>
<symbol id="i-menu" fill="none" xmlns="http://www.w3.org/2000/svg" viewBox="0 0 24 24"><path fill="currentColor" d="M3 6a1 1 0 011-1h16a1 1 0 110 2H4a1 1 0 01-1-1zm0 6a1 1 0 011-1h10a1 1 0 110 2H4a1 1 0 01-1-1zm1 5a1 1 0 100 2h16a1 1 0 100-2H4z"/></symbol>
<symbol id="i-money" viewBox="0 0 25 24" fill="none" xmlns="http://www.w3.org/2000/svg"><path d="M5.185 18.136h2.863v2.455a.396.396 0 00.41.409h2.134a.404.404 0 00.41-.409v-2.455h6.455c.12 0 .217-.038.294-.115a.398.398 0 00.115-.294v-1.636a.397.397 0 00-.115-.294.398.398 0 00-.294-.115h-6.456v-1.509h4.347c1.704 0 3.095-.52 4.174-1.56 1.078-1.039 1.617-2.381 1.617-4.026s-.54-2.987-1.617-4.027C18.444 3.52 17.052 3 15.348 3h-6.89a.4.4 0 00-.295.115.4.4 0 00-.115.294v8.041H5.185a.405.405 0 00-.41.409v1.905c0 .12.039.217.115.294a.397.397 0 00.295.115h2.863v1.509H5.185a.398.398 0 00-.295.115.398.398 0 00-.115.294v1.636c0 .12.039.217.115.294a.397.397 0 00.295.115zM11 5.723h4.091c.903 0 1.632.264 2.186.793.554.528.831 1.219.831 2.07 0 .853-.277 1.544-.831 2.072-.554.529-1.283.793-2.186.793h-4.09V5.723z" fill="#fff"/></symbol>
<symbol id="i-no-bonuses" viewBox="0 0 80 100" xmlns="http://www.w3.org/2000/svg"><g clip-path="url(#clip0_6072_136046)" fill-rule="evenodd" clip-rule="evenodd"><path d="M12.552 52.888v27.98c0 11.266 6.76 19.05 17.001 19.05h32.979c10.037 0 17-7.579 17-19.05v-27.98c2.295-.205-69.028-.205-66.98 0zM42.91 93.65H29.594c-7.988 0-10.856-6.555-10.856-12.7V59.238h24.17V93.65zm19.664.205h-13.52V59.238h24.171v21.63h.205c-.041 6.145-2.909 12.987-10.897 12.987h.04zM55.055.982l-12.29 5.203a2.499 2.499 0 00-1.229-2.355 2.99 2.99 0 00-4.096.655 2.979 2.979 0 10-5.9-.84 3.175 3.175 0 00-4.096-1.618 3.134 3.134 0 00-1.618 4.097 2.991 2.991 0 10-3.4 4.71 2.949 2.949 0 00-3.36 2.54 3.032 3.032 0 00.84 2.52l-12.29 5.203a10.815 10.815 0 00-6.37 13.847l4.24 9.975c.88 2.049 2.437 2.049 4.403 1.475l61.696-26.178c2.049-1.065 2.889-2.048 2.049-4.199l-4.24-9.996A10.775 10.775 0 0055.055.982zm-39.492 43.2l22.245-9.443-22.245 9.443zm19.972-15.383L9.889 39.696l-3.052-7.17a4.65 4.65 0 013.114-5.755l20.934-8.89 4.65 10.918zm7.947 3.523l22.245-9.443-22.245 9.443zm23.146-16.735L40.983 26.484l-4.63-10.938 20.894-8.89a4.69 4.69 0 016.33 1.782l3.051 7.15z"/></g></symbol>
<symbol id="i-people" viewBox="0 0 18 18" xmlns="http://www.w3.org/2000/svg"><path fill-rule="evenodd" clip-rule="evenodd" d="M9 4.219c1.163 0 2.11-.946 2.11-2.11C11.11.946 10.162 0 9 0 7.837 0 6.89.946 6.89 2.11c0 1.163.947 2.109 2.11 2.109zm0-2.813a.704.704 0 11-.002 1.408A.704.704 0 019 1.406zm3.867 9.777c0 .86-.458 1.668-1.195 2.11l-.05.03a1.06 1.06 0 00-.513.905v3.069a.703.703 0 01-1.406 0v-3.069c0-.86.458-1.668 1.195-2.11l.05-.03a1.06 1.06 0 00.513-.905V8.051c0-1.453-1.348-1.758-2.479-1.758-1.13 0-2.478.305-2.478 1.758v3.122c0 .372.2.72.52.909l.06.035a2.47 2.47 0 011.213 2.121v3.059a.703.703 0 11-1.406 0v-3.059c0-.372-.2-.72-.52-.909l-.06-.035a2.47 2.47 0 01-1.213-2.121V8.05c0-1.06.427-1.913 1.236-2.47.662-.454 1.578-.694 2.648-.694s1.987.24 2.648.695c.81.556 1.237 1.41 1.237 2.469v3.132zM3.516 5.625c1.163 0 2.109-.946 2.109-2.11 0-1.163-.946-2.109-2.11-2.109-1.163 0-2.109.946-2.109 2.11 0 1.163.946 2.109 2.11 2.109zm0-2.813a.704.704 0 11-.002 1.408.704.704 0 01.002-1.407zm2.109 12.024v2.46a.703.703 0 11-1.406 0v-2.46a.703.703 0 111.406 0zM4.148 7.014a.703.703 0 01-.703.703c-2.039 0-2.039.958-2.039 1.318v2.988c0 .33.158.646.422.844.616.462.984 1.198.984 1.969v2.46a.703.703 0 11-1.406 0v-2.46c0-.33-.157-.646-.422-.844A2.473 2.473 0 010 12.023V9.035c0-.95.39-1.701 1.129-2.172.576-.367 1.355-.552 2.316-.552.389 0 .703.314.703.703zm10.336-1.389c1.164 0 2.11-.946 2.11-2.11 0-1.163-.946-2.109-2.11-2.109-1.163 0-2.109.946-2.109 2.11 0 1.163.946 2.109 2.11 2.109zm0-2.813a.704.704 0 11-.001 1.408.704.704 0 01.001-1.407zm-.703 12.024v2.46a.703.703 0 11-1.406 0v-2.46a.703.703 0 011.406 0zM18 9.036v2.987c0 .77-.368 1.507-.984 1.97a1.06 1.06 0 00-.422.843v2.46a.703.703 0 01-1.407 0v-2.46c0-.77.369-1.507.985-1.969a1.06 1.06 0 00.422-.844V9.035c0-.36 0-1.318-2.04-1.318a.703.703 0 110-1.406c.962 0 1.742.185 2.317.552C17.61 7.333 18 8.085 18 9.035z"/></symbol>
<symbol id="i-providers" viewBox="0 0 24 24" fill="none" xmlns="http://www.w3.org/2000/svg"><path fill-rule="evenodd" clip-rule="evenodd" d="M10 13a1 1 0 011 1v6a1 1 0 01-1 1H4a1 1 0 01-1-1v-6a1 1 0 011-1h6zm10 0a1 1 0 011 1v6a1 1 0 01-1 1h-6a1 1 0 01-1-1v-6a1 1 0 011-1h6zM9.5 14.5h-5v5h5v-5zm10 0h-5v5h5v-5zM10 3a1 1 0 011 1v6a1 1 0 01-1 1H4a1 1 0 01-1-1V4a1 1 0 011-1h6zm10 0a1 1 0 011 1v6a1 1 0 01-1 1h-6a1 1 0 01-1-1V4a1 1 0 011-1h6zM9.5 4.5h-5v5h5v-5zm10 0h-5v5h5v-5z" fill="#8E919E"/></symbol>
<symbol id="i-search-close" fill="none" xmlns="http://www.w3.org/2000/svg" viewBox="0 0 12 12"><path fill="#fff" fill-rule="evenodd" clip-rule="evenodd" d="M9.707 3.707a1 1 0 00-1.414-1.414L6 4.586 3.707 2.293a1 1 0 00-1.414 1.414L4.586 6 2.293 8.293a1 1 0 001.414 1.414L6 7.414l2.293 2.293a1 1 0 001.414-1.414L7.414 6l2.293-2.293z"/></symbol>
<symbol id="i-search" viewBox="0 0 24 24" fill="none" xmlns="http://www.w3.org/2000/svg"><path fill-rule="evenodd" clip-rule="evenodd" d="M11 19a8 8 0 100-16 8 8 0 000 16z" stroke="#fff" stroke-width="2" stroke-linecap="round" stroke-linejoin="round"/><path d="M21 21l-4.35-4.35" stroke="#fff" stroke-width="2" stroke-linecap="round" stroke-linejoin="round"/></symbol>
<symbol id="i-star" fill="none" xmlns="http://www.w3.org/2000/svg" viewBox="0 0 48 48"><path d="M24 8l3.592 11.056h11.625l-9.405 6.832 3.592 11.056L24 30.111l-9.405 6.833 3.592-11.056-9.404-6.832h11.624L24 8z" fill="currentColor"/><path d="M24 1.618l4.913 15.12.112.346h16.261l-12.861 9.344-.294.214.112.345 4.913 15.12-12.862-9.344-.294-.214-.294.214-12.862 9.344 4.913-15.12.112-.345-.294-.214-12.862-9.344h16.262l.112-.346L24 1.618z" stroke="currentColor" stroke-width=".5"/></symbol>
<symbol id="i-success" viewBox="0 0 64 64" fill="#05C489" xmlns="http://www.w3.org/2000/svg"><g clip-path="url(#clip0_4152_106967)"><path d="M0 32.015A31.99 31.99 0 0119.775 2.47a32.005 32.005 0 0141.798 17.345A31.99 31.99 0 0164 32.061c-.014 17.67-14.352 31.953-32.058 31.941C14.3 63.99.002 49.675 0 32.015zm59.076-.043c-.037-14.92-12.262-27.11-27.125-27.05-14.903.063-27.017 12.195-27.027 27.069-.01 14.873 12.2 27.1 27.084 27.088 14.884-.012 27.105-12.233 27.068-27.107z"/><path d="M28.753 36.901c.193-.297.404-.583.633-.854 4.036-4.048 8.077-8.092 12.124-12.133.651-.655 1.379-1.079 2.322-.93a2.392 2.392 0 011.985 1.61c.36.986.128 1.876-.602 2.614-1.95 1.966-3.904 3.918-5.869 5.876a8383.3 8383.3 0 00-8.542 8.537c-1.455 1.453-2.727 1.448-4.18 0-2.03-2.028-4.055-4.064-6.091-6.086-.738-.731-1.038-1.588-.748-2.587.524-1.81 2.725-2.373 4.133-1.027 1.407 1.346 2.768 2.74 4.14 4.121.2.194.356.434.695.86z"/></g></symbol>
<symbol id="i-two-arrow-right" viewBox="0 0 11 14" fill="none" xmlns="http://www.w3.org/2000/svg"><path fill-rule="evenodd" clip-rule="evenodd" d="M1.744 2.431c-.21 0-.413.09-.575.255-.184.188-.3.459-.321.752-.022.293.052.585.204.811l2.569 2.736-2.587 2.76c-.15.23-.22.523-.196.816.026.294.145.563.331.747a.794.794 0 00.685.27c.249-.03.476-.19.626-.436l3.045-3.459c.273-.409.273-.999 0-1.408L2.49 2.83c-.182-.272-.46-.42-.745-.399z" fill="#FCC054"/><path fill-rule="evenodd" clip-rule="evenodd" d="M4.726.335c-.21 0-.413.09-.575.255-.184.188-.3.459-.321.752-.022.293.052.585.204.811l4.024 4.832-3.88 4.842c-.15.23-.221.523-.196.816.025.294.144.563.33.747a.793.793 0 00.686.27c.249-.03.476-.19.626-.436l4.338-5.54c.273-.41.273-1 0-1.409L5.472.735c-.183-.273-.46-.42-.746-.4z" fill="#FCC054"/></symbol>
<symbol id="i-valid" viewBox="0 0 24 24" fill="none" xmlns="http://www.w3.org/2000/svg"><path d="M7 11.344L10.96 15 17 9" stroke="#00d991" stroke-width="2" stroke-linejoin="round"/></symbol>
<symbol id="i-wallet-money" viewBox="0 0 32 32" fill="none" xmlns="http://www.w3.org/2000/svg"><g clip-path="url(#clip0)"><path d="M31.495 5.305l-.96-4.84a.533.533 0 00-.627-.42L3.483 5.299h-.816a.533.533 0 00-.534.533v2.72A2.66 2.66 0 000 11.166v18.133a2.67 2.67 0 002.667 2.667h28.8a.533.533 0 00.533-.534v-25.6a.533.533 0 00-.505-.527zm-9.66 7.46a4.8 4.8 0 00-9.537 0H3.2v-6.4h27.733v6.4h-9.098zm-1.073 0h-7.39a3.733 3.733 0 017.39 0zm8.83-11.57l.814 4.104H8.953l20.639-4.104zm-28.06 8.841a1.63 1.63 0 01.601-.379v3.011l-.035-.01a1.577 1.577 0 01-.2-.097c-.032-.018-.066-.032-.097-.054a1.648 1.648 0 01-.267-.209 1.604 1.604 0 01-.005-2.264l.003.002zm1.135 20.863a1.6 1.6 0 01-1.6-1.6v-16c.024.018.05.03.075.047.047.033.095.062.144.092a2.688 2.688 0 00.438.216c.103.038.208.07.314.095.05.012.098.027.148.036.159.03.32.046.48.047h28.267v5.334h-8a.533.533 0 00-.533.533v5.333c0 .295.239.534.533.534h8v5.333H2.667zm28.266-6.4h-7.466v-4.267h7.466V24.5z" fill="url(#paint0_linear)"/><path d="M29.333 7.432h-3.2V8.5h2.666v2.666h1.067v-3.2a.533.533 0 00-.533-.533z" fill="url(#paint1_linear)"/><path d="M4.267 7.965v3.2h1.066V8.5H8V7.432H4.8a.533.533 0 00-.533.533z" fill="url(#paint2_linear)"/><path d="M24.533 21.832H25.6v1.067h-1.067v-1.067z" fill="url(#paint3_linear)"/></g></symbol>
<symbol id="i-wallet" fill="none" xmlns="http://www.w3.org/2000/svg" viewBox="0 0 24 24"><path d="M20.203 8.875H17V3.408a1.4 1.4 0 00-.667-1.197 1.397 1.397 0 00-1.385-.053L3.355 8.398A2.573 2.573 0 002 10.665v9.537A1.8 1.8 0 003.797 22h16.406A1.8 1.8 0 0022 20.203v-9.531a1.8 1.8 0 00-1.797-1.797zm-4.674-5.61a.15.15 0 01.147.01.15.15 0 01.074.133v5.467H5.105l10.424-5.61zm5.22 16.938a.547.547 0 01-.546.547H3.797a.547.547 0 01-.547-.547v-9.531c0-.302.245-.547.547-.547h16.406c.301 0 .547.245.547.547v9.531z" fill="currentColor" stroke="currentColor"/><path d="M18.25 16.688a1.251 1.251 0 010-2.5 1.25 1.25 0 010 2.5zm0-1.25s0 0 0 0h0z" fill="currentColor" stroke="currentColor"/></symbol>
<symbol id="i-wide-crown" viewBox="0 0 19 15" xmlns="http://www.w3.org/2000/svg"><g clip-path="url(#clip0_3615_93239)"><path d="M9.274 15V.873.459c0-.182 0-.383.229-.446a.421.421 0 01.473.201c.27.396.53.8.761 1.218a354.763 354.763 0 012.299 4.224c.242.462.523.566.99.316.862-.462 1.742-.89 2.62-1.324a4.68 4.68 0 01.819-.34c.793-.23 1.417.347 1.278 1.17a767.78 767.78 0 01-1.418 8.272c-.18 1.021-.437 1.24-1.454 1.243-2.202.012-4.407 0-6.609 0l.012.007z"/><path d="M9.726 15V.873.459c0-.182 0-.383-.229-.446a.421.421 0 00-.473.201c-.27.396-.53.8-.761 1.218a353.191 353.191 0 00-2.298 4.224c-.243.462-.524.566-.99.316-.863-.462-1.743-.89-2.621-1.324a4.679 4.679 0 00-.819-.34c-.793-.23-1.417.347-1.278 1.17.457 2.759.93 5.516 1.418 8.272.18 1.021.437 1.24 1.454 1.243 2.202.012 4.406 0 6.609 0L9.726 15z"/></g></symbol>
</svg>