<svg width="110" height="37" viewBox="0 0 110 37" fill="none" xmlns="http://www.w3.org/2000/svg">
<g clip-path="url(#clip0_4514_4639)">
<path d="M37.2322 29.7577H27.8174V29.2466H29.2654V17.9963H27.8174V17.4852H33.2187V17.9963H31.7796V29.2466H33.5429C34.1247 29.2466 34.6167 29.1658 35.0024 29.0081C35.383 28.8516 35.6957 28.6308 35.9302 28.3519C36.1698 28.0679 36.3518 27.7222 36.4723 27.3272C36.5966 26.9208 36.6747 26.469 36.7055 25.9857L36.717 25.8015H37.2322V29.7589V29.7577Z" fill="url(#paint0_linear_4514_4639)"/>
<path d="M44.3441 29.9166C43.4765 29.9166 42.6897 29.7526 42.0054 29.4295C41.3224 29.1065 40.7342 28.6522 40.2563 28.078C39.7808 27.5076 39.4143 26.8324 39.167 26.0727C38.921 25.3168 38.7954 24.4928 38.7954 23.6208C38.7954 22.7488 38.9274 21.9222 39.1875 21.1663C39.4489 20.4079 39.827 19.734 40.3139 19.1623C40.8022 18.5894 41.3916 18.1351 42.0695 17.8133C42.7474 17.4902 43.5137 17.3262 44.3441 17.3262C45.1744 17.3262 45.9318 17.4902 46.6109 17.8133C47.2875 18.1363 47.8783 18.5894 48.3665 19.1623C48.8522 19.7327 49.2289 20.4066 49.4891 21.1663C49.7466 21.9222 49.8774 22.7488 49.8774 23.6208C49.8774 24.4928 49.7543 25.3168 49.5096 26.0715C49.2648 26.8312 48.9009 27.5063 48.4293 28.0805C47.9539 28.6585 47.3657 29.1128 46.6789 29.4333C45.9933 29.7538 45.2078 29.9154 44.3454 29.9154L44.3441 29.9166ZM44.3441 17.8297C43.8225 17.8297 43.3868 17.9786 43.0485 18.2714C42.6974 18.5755 42.4155 18.9983 42.2105 19.5283C42.0003 20.0734 41.8478 20.7031 41.7594 21.3997C41.6697 22.1027 41.6236 22.851 41.6236 23.6208C41.6236 24.3906 41.6607 25.1339 41.735 25.8418C41.8081 26.5409 41.9465 27.1719 42.1464 27.7158C42.3399 28.2433 42.6192 28.6648 42.9742 28.9689C43.3189 29.263 43.779 29.4119 44.3441 29.4119C44.9092 29.4119 45.3679 29.263 45.7088 28.9689C46.0612 28.6648 46.338 28.2433 46.5289 27.7158C46.7263 27.1706 46.8634 26.5397 46.9364 25.8405C47.0108 25.1326 47.0479 24.3855 47.0479 23.6195C47.0479 22.8535 47.0044 22.1026 46.9172 21.3972C46.8314 20.7006 46.6814 20.0722 46.47 19.527C46.265 18.997 45.9843 18.5742 45.6358 18.2701C45.3 17.9773 44.8656 17.8284 44.3441 17.8284V17.8297Z" fill="url(#paint1_linear_4514_4639)"/>
<path d="M56.4716 29.7577H51.0703V29.2466H52.5183V17.9963H51.0703V17.4852H56.4972C57.5224 17.4852 58.3771 17.6278 59.0371 17.9092C59.7111 18.197 60.2173 18.6134 60.5402 19.1497C60.8606 19.6798 61.022 20.3133 61.022 21.0326C61.022 21.7519 60.8593 22.3765 60.5376 22.8864C60.2134 23.4012 59.7047 23.7975 59.0268 24.0663C58.3656 24.3275 57.5134 24.4613 56.496 24.4613H55.03V29.2491H56.469V29.7602L56.4716 29.7577ZM55.0325 23.9477H56.305C56.6215 23.9477 56.9022 23.8644 57.1405 23.7016C57.3878 23.5325 57.5967 23.3028 57.7607 23.0201C57.9299 22.7286 58.0593 22.4056 58.1465 22.0611C58.2336 21.714 58.2772 21.367 58.2772 21.0313C58.2772 20.6956 58.2336 20.341 58.1465 19.9801C58.0593 19.6217 57.9299 19.2848 57.7595 18.9794C57.5941 18.6841 57.384 18.4405 57.1354 18.2575C56.8983 18.0834 56.619 17.9951 56.305 17.9951H55.0325V23.9464V23.9477Z" fill="url(#paint2_linear_4514_4639)"/>
<path d="M71.2929 29.7577H61.8218V29.2466H63.2698V17.9963H61.8218V17.4852H71.1315V21.126H70.6279L70.6125 20.9455C70.5664 20.4079 70.428 19.9069 70.1986 19.4564C69.9743 19.0147 69.6565 18.6563 69.2529 18.3913C68.8543 18.1288 68.3559 17.9963 67.7715 17.9963H65.7827V23.164H66.2915C66.5631 23.164 66.8245 23.0984 67.0706 22.9697C67.3179 22.8397 67.5306 22.6542 67.7023 22.4182C67.8728 22.1847 67.9804 21.9033 68.0253 21.584L68.0483 21.4137H68.543V25.4973H68.0483L68.0253 25.327C67.9817 25.0052 67.8715 24.7162 67.6998 24.4689C67.5268 24.2203 67.3141 24.0234 67.0655 23.8833C66.8207 23.7458 66.5606 23.6751 66.2915 23.6751H65.7827V29.2466H67.6101C68.3033 29.2466 68.8787 29.1078 69.3221 28.8327C69.7642 28.5588 70.1076 28.1752 70.3421 27.6944C70.5817 27.201 70.7278 26.6255 70.774 25.9832L70.7868 25.8002H71.2929V29.7577Z" fill="url(#paint3_linear_4514_4639)"/>
<path d="M78.7012 29.7577H73.0244V29.2466H74.4724V17.9963H73.0244V17.4852H78.3706C79.6943 17.4852 80.7643 17.7288 81.5524 18.2071C82.37 18.7055 82.7852 19.5144 82.7852 20.6111C82.7852 21.7077 82.3918 22.48 81.6152 22.9709C81.3167 23.159 80.9604 23.3116 80.5529 23.4265C80.6887 23.4555 80.822 23.4883 80.9502 23.5237C81.6434 23.7155 82.206 24.0385 82.6237 24.4865C83.0504 24.9446 83.267 25.5642 83.267 26.3302C83.267 27.5568 82.8467 28.449 82.0189 28.9816C81.218 29.4965 80.1018 29.7577 78.7012 29.7577ZM76.9866 29.2466H78.3399C78.7384 29.2466 79.1023 29.1229 79.4252 28.8794C79.7558 28.6295 80.0224 28.2749 80.2197 27.8244C80.4196 27.3688 80.5209 26.8338 80.5209 26.2356C80.5209 25.6374 80.4222 25.1541 80.2261 24.7856C80.0339 24.4234 79.7725 24.1534 79.4509 23.9805C79.1228 23.8051 78.7486 23.7155 78.3399 23.7155H76.9866V29.2479V29.2466ZM76.9866 23.2031H78.1784C78.5346 23.2031 78.8717 23.1211 79.1792 22.9608C79.4803 22.8031 79.7277 22.5469 79.9173 22.1986C80.1095 21.844 80.2069 21.3632 80.2069 20.7701C80.2069 20.177 80.1082 19.6621 79.9122 19.2494C79.7187 18.8418 79.465 18.5263 79.1574 18.3131C78.855 18.1036 78.5257 17.9963 78.1784 17.9963H76.9866V23.2031Z" fill="url(#paint4_linear_4514_4639)"/>
<path d="M93.9604 29.7577H84.4893V29.2466H85.9373V17.9963H84.4893V17.4852H93.799V21.126H93.2953L93.28 20.9455C93.2338 20.4079 93.0954 19.9069 92.8661 19.4564C92.6418 19.0147 92.324 18.6563 91.9204 18.3913C91.5218 18.1288 91.0233 17.9963 90.439 17.9963H88.4502V23.164H88.9589C89.2306 23.164 89.492 23.0984 89.7381 22.9697C89.9854 22.8397 90.1981 22.6542 90.3698 22.4182C90.5402 22.1847 90.6492 21.9033 90.6927 21.584L90.7158 21.4137H91.2104V25.4973H90.7158L90.6927 25.327C90.6492 25.0052 90.539 24.7175 90.3672 24.4689C90.1955 24.2203 89.9815 24.0234 89.7329 23.8833C89.4882 23.7458 89.228 23.6751 88.9589 23.6751H88.4502V29.2466H90.2775C90.9708 29.2466 91.5462 29.1078 91.9883 28.8327C92.4304 28.5588 92.7738 28.1752 93.0083 27.6944C93.2479 27.2022 93.394 26.6255 93.4402 25.9832L93.453 25.8002H93.9591V29.7577H93.9604Z" fill="url(#paint5_linear_4514_4639)"/>
<path d="M103.852 29.7576H97.8074V29.2465H99.577V17.9962H98.7825C98.375 17.9962 98.0265 18.0795 97.7459 18.2423C97.4614 18.4076 97.2217 18.6424 97.0334 18.9414C96.8386 19.2506 96.6874 19.6166 96.5836 20.0292C96.5029 20.3498 96.4413 20.6943 96.4003 21.0552L96.3926 21.1246H95.8916V17.4839H105.77V21.1246H105.268L105.26 21.0539C105.222 20.6943 105.16 20.3498 105.078 20.0305C104.971 19.6166 104.818 19.2494 104.623 18.9414C104.435 18.6424 104.195 18.4076 103.911 18.2423C103.63 18.0795 103.278 17.9962 102.867 17.9962H102.084V29.2465H103.853V29.7576H103.852Z" fill="url(#paint6_linear_4514_4639)"/>
<path d="M21.8337 19.8198C19.0863 20.6237 17.9547 20.9631 16.0082 23.7318C13.6914 27.0255 14.0976 31.1622 14.3218 32.8091C14.8062 32.2879 15.1471 31.884 15.6712 30.7533C16.4055 29.1671 16.5093 28.8276 16.5746 28.4427C16.7925 27.1744 16.2748 27.1757 16.5029 25.9138C16.6323 25.202 16.7399 24.6278 17.2448 24.2593C17.883 23.7937 18.2277 24.2795 19.1567 24.2089C20.369 24.118 21.8247 23.2826 22.2386 21.8768C22.4385 21.1953 22.609 19.5939 21.8337 19.8211V19.8198Z" fill="url(#paint7_linear_4514_4639)"/>
<path d="M2.61566 19.8198C5.36308 20.6237 6.49459 20.9631 8.44111 23.7318C10.758 27.0255 10.3517 31.1622 10.1275 32.8091C9.6431 32.2879 9.30224 31.884 8.77813 30.7533C8.04386 29.1671 7.94006 28.8276 7.87471 28.4427C7.65686 27.1744 8.17457 27.1757 7.94647 25.9138C7.81704 25.202 7.7094 24.6278 7.20451 24.2593C6.56635 23.7937 6.22165 24.2795 5.2926 24.2089C4.08035 24.118 2.62463 23.2826 2.21072 21.8768C2.01082 21.1953 1.84038 19.5939 2.61566 19.8211V19.8198Z" fill="url(#paint8_linear_4514_4639)"/>
<path d="M19.1563 7.09679C19.0167 7.9751 19.0166 8.87488 19.141 9.74436C19.1461 9.78095 19.1525 9.81881 19.1563 9.85415C19.3985 11.448 20.0559 12.9333 21.0503 14.0097V17.7098C20.8696 17.6063 18.9692 16.4403 17.0009 18.1906C15.344 19.6633 16.5306 21.3909 16.4871 21.7808C15.7541 22.4623 14.7251 23.6132 13.9895 25.3395C12.307 29.2907 13.4936 33.1396 13.7935 34.0293C13.8319 34.1164 14.0972 34.7019 13.864 35.3102C13.6384 35.8995 12.8388 36.3728 12.2224 36.9999C11.5586 36.3261 10.8077 35.8983 10.5809 35.3102C10.3464 34.7007 10.6104 34.1164 10.6514 34.0293C10.9487 33.1396 12.1353 29.2907 10.4553 25.3395C9.71976 23.6132 8.69076 22.4623 7.95649 21.7808C7.91293 21.3922 9.09826 19.6633 7.4452 18.1906C5.47562 16.439 3.57395 17.6063 3.39327 17.7098C3.39327 16.4756 3.39583 15.2439 3.39583 14.0097H3.39327C4.38639 12.9333 5.04633 11.4467 5.28596 9.85415C5.29237 9.81755 5.30006 9.77969 5.3039 9.74436C5.42692 8.87488 5.42436 7.9751 5.28596 7.09679C4.81311 4.12237 2.75511 2.19411 0.385715 2.01239C0.356242 2.00735 0.034599 1.71331 0 1.68176H0.465165C3.09725 1.68176 5.57813 3.38539 6.56613 6.49358C7.25554 8.65151 7.0928 10.7262 6.79935 12.1875C6.57766 13.2816 6.27908 14.0312 6.20604 14.2079C7.37216 14.541 8.26532 15.0963 8.89451 15.5897C9.10211 15.7538 9.28023 15.9115 9.43144 16.0528C10.9448 17.465 12.0904 19.1863 12.2365 20.5189C12.3762 19.1888 13.5039 17.4637 15.016 16.0528C15.1736 15.9039 15.3632 15.7386 15.5849 15.5657C16.2154 15.0774 17.0932 14.536 18.2388 14.2079C18.1658 14.0299 17.8672 13.2816 17.6481 12.1875C17.3508 10.7262 17.1893 8.65151 17.8787 6.49358C18.8693 3.38539 21.3476 1.68176 23.9797 1.68176H24.4449C24.4103 1.71331 24.0912 2.00735 24.0591 2.01239C21.6897 2.19411 19.6317 4.12364 19.1563 7.09679Z" fill="url(#paint9_linear_4514_4639)"/>
</g>
<defs>
<linearGradient id="paint0_linear_4514_4639" x1="34.1528" y1="8.96455" x2="31.6031" y2="32.6333" gradientUnits="userSpaceOnUse">
<stop stop-color="#FCC054"/>
<stop offset="0.04" stop-color="#F2B34C"/>
<stop offset="0.13" stop-color="#DE9B3B"/>
<stop offset="0.18" stop-color="#D79236"/>
<stop offset="0.26" stop-color="#DD9A3B"/>
<stop offset="0.38" stop-color="#F0B14A"/>
<stop offset="0.45" stop-color="#FCC054"/>
<stop offset="0.56" stop-color="#FCC75D"/>
<stop offset="0.75" stop-color="#FCDD75"/>
<stop offset="0.89" stop-color="#FDF08B"/>
</linearGradient>
<linearGradient id="paint1_linear_4514_4639" x1="45.8254" y1="10.2214" x2="43.2756" y2="33.8914" gradientUnits="userSpaceOnUse">
<stop stop-color="#FCC054"/>
<stop offset="0.04" stop-color="#F2B34C"/>
<stop offset="0.13" stop-color="#DE9B3B"/>
<stop offset="0.18" stop-color="#D79236"/>
<stop offset="0.26" stop-color="#DD9A3B"/>
<stop offset="0.38" stop-color="#F0B14A"/>
<stop offset="0.45" stop-color="#FCC054"/>
<stop offset="0.56" stop-color="#FCC75D"/>
<stop offset="0.75" stop-color="#FCDD75"/>
<stop offset="0.89" stop-color="#FDF08B"/>
</linearGradient>
<linearGradient id="paint2_linear_4514_4639" x1="56.9316" y1="11.4178" x2="54.3819" y2="35.0865" gradientUnits="userSpaceOnUse">
<stop stop-color="#FCC054"/>
<stop offset="0.04" stop-color="#F2B34C"/>
<stop offset="0.13" stop-color="#DE9B3B"/>
<stop offset="0.18" stop-color="#D79236"/>
<stop offset="0.26" stop-color="#DD9A3B"/>
<stop offset="0.38" stop-color="#F0B14A"/>
<stop offset="0.45" stop-color="#FCC054"/>
<stop offset="0.56" stop-color="#FCC75D"/>
<stop offset="0.75" stop-color="#FCDD75"/>
<stop offset="0.89" stop-color="#FDF08B"/>
</linearGradient>
<linearGradient id="paint3_linear_4514_4639" x1="67.7831" y1="12.5863" x2="65.2333" y2="36.2563" gradientUnits="userSpaceOnUse">
<stop stop-color="#FCC054"/>
<stop offset="0.04" stop-color="#F2B34C"/>
<stop offset="0.13" stop-color="#DE9B3B"/>
<stop offset="0.18" stop-color="#D79236"/>
<stop offset="0.26" stop-color="#DD9A3B"/>
<stop offset="0.38" stop-color="#F0B14A"/>
<stop offset="0.45" stop-color="#FCC054"/>
<stop offset="0.56" stop-color="#FCC75D"/>
<stop offset="0.75" stop-color="#FCDD75"/>
<stop offset="0.89" stop-color="#FDF08B"/>
</linearGradient>
<linearGradient id="paint4_linear_4514_4639" x1="79.0626" y1="13.8016" x2="76.5128" y2="37.4703" gradientUnits="userSpaceOnUse">
<stop stop-color="#FCC054"/>
<stop offset="0.04" stop-color="#F2B34C"/>
<stop offset="0.13" stop-color="#DE9B3B"/>
<stop offset="0.18" stop-color="#D79236"/>
<stop offset="0.26" stop-color="#DD9A3B"/>
<stop offset="0.38" stop-color="#F0B14A"/>
<stop offset="0.45" stop-color="#FCC054"/>
<stop offset="0.56" stop-color="#FCC75D"/>
<stop offset="0.75" stop-color="#FCDD75"/>
<stop offset="0.89" stop-color="#FDF08B"/>
</linearGradient>
<linearGradient id="paint5_linear_4514_4639" x1="90.1827" y1="14.9992" x2="87.6329" y2="38.6692" gradientUnits="userSpaceOnUse">
<stop stop-color="#FCC054"/>
<stop offset="0.04" stop-color="#F2B34C"/>
<stop offset="0.13" stop-color="#DE9B3B"/>
<stop offset="0.18" stop-color="#D79236"/>
<stop offset="0.26" stop-color="#DD9A3B"/>
<stop offset="0.38" stop-color="#F0B14A"/>
<stop offset="0.45" stop-color="#FCC054"/>
<stop offset="0.56" stop-color="#FCC75D"/>
<stop offset="0.75" stop-color="#FCDD75"/>
<stop offset="0.89" stop-color="#FDF08B"/>
</linearGradient>
<linearGradient id="paint6_linear_4514_4639" x1="101.176" y1="16.1841" x2="98.6265" y2="39.8528" gradientUnits="userSpaceOnUse">
<stop stop-color="#FCC054"/>
<stop offset="0.04" stop-color="#F2B34C"/>
<stop offset="0.13" stop-color="#DE9B3B"/>
<stop offset="0.18" stop-color="#D79236"/>
<stop offset="0.26" stop-color="#DD9A3B"/>
<stop offset="0.38" stop-color="#F0B14A"/>
<stop offset="0.45" stop-color="#FCC054"/>
<stop offset="0.56" stop-color="#FCC75D"/>
<stop offset="0.75" stop-color="#FCDD75"/>
<stop offset="0.89" stop-color="#FDF08B"/>
</linearGradient>
<linearGradient id="paint7_linear_4514_4639" x1="20.2434" y1="7.46658" x2="17.6949" y2="31.1353" gradientUnits="userSpaceOnUse">
<stop stop-color="#FCC054"/>
<stop offset="0.04" stop-color="#F2B34C"/>
<stop offset="0.13" stop-color="#DE9B3B"/>
<stop offset="0.18" stop-color="#D79236"/>
<stop offset="0.26" stop-color="#DD9A3B"/>
<stop offset="0.38" stop-color="#F0B14A"/>
<stop offset="0.45" stop-color="#FCC054"/>
<stop offset="0.56" stop-color="#FCC75D"/>
<stop offset="0.75" stop-color="#FCDD75"/>
<stop offset="0.89" stop-color="#FDF08B"/>
</linearGradient>
<linearGradient id="paint8_linear_4514_4639" x1="8.36294" y1="6.18696" x2="5.81315" y2="29.8557" gradientUnits="userSpaceOnUse">
<stop stop-color="#FCC054"/>
<stop offset="0.04" stop-color="#F2B34C"/>
<stop offset="0.13" stop-color="#DE9B3B"/>
<stop offset="0.18" stop-color="#D79236"/>
<stop offset="0.26" stop-color="#DD9A3B"/>
<stop offset="0.38" stop-color="#F0B14A"/>
<stop offset="0.45" stop-color="#FCC054"/>
<stop offset="0.56" stop-color="#FCC75D"/>
<stop offset="0.75" stop-color="#FCDD75"/>
<stop offset="0.89" stop-color="#FDF08B"/>
</linearGradient>
<linearGradient id="paint9_linear_4514_4639" x1="11.6829" y1="6.54405" x2="9.13315" y2="30.2128" gradientUnits="userSpaceOnUse">
<stop stop-color="#FCC054"/>
<stop offset="0.04" stop-color="#F2B34C"/>
<stop offset="0.13" stop-color="#DE9B3B"/>
<stop offset="0.18" stop-color="#D79236"/>
<stop offset="0.26" stop-color="#DD9A3B"/>
<stop offset="0.38" stop-color="#F0B14A"/>
<stop offset="0.45" stop-color="#FCC054"/>
<stop offset="0.56" stop-color="#FCC75D"/>
<stop offset="0.75" stop-color="#FCDD75"/>
<stop offset="0.89" stop-color="#FDF08B"/>
</linearGradient>
<clipPath id="clip0_4514_4639">
<rect width="105.769" height="35.3182" fill="white" transform="translate(0 1.68176)"/>
</clipPath>
</defs>
</svg>
