<svg width="86" height="126" viewBox="0 0 86 126" xmlns="http://www.w3.org/2000/svg">
<g opacity="0.32">
<path d="M76.4428 64.8618C66.8298 67.717 62.8685 68.9308 56.0387 78.7957C47.9283 90.524 49.3455 105.244 50.1309 111.108C51.8213 109.245 53.0165 107.826 54.8605 103.791C57.4388 98.1492 57.7974 96.9353 58.0193 95.5675C58.7877 91.054 56.9607 91.054 57.7632 86.5576C58.2072 84.0273 58.5999 81.9756 60.3585 80.6592C62.5953 79.0008 63.8076 80.7276 67.0518 80.4882C71.3033 80.1634 76.3916 77.1886 77.8429 72.1792C78.543 69.7515 79.1406 64.0583 76.4257 64.8618H76.4428Z" fill="url(#paint0_linear_5911_134688)"/>
<path d="M9.15196 64.8619C18.7649 67.717 22.7262 68.9309 29.5561 78.7957C37.6665 90.5241 36.2493 105.244 35.4639 111.109C33.7735 109.245 32.5783 107.826 30.7342 103.791C28.1559 98.1492 27.7974 96.9353 27.5754 95.5676C26.8071 91.0541 28.634 91.0541 27.8315 86.5576C27.3876 84.0273 26.9949 81.9757 25.2362 80.6593C22.9994 79.0009 21.7871 80.7276 18.543 80.4883C14.2914 80.1635 9.20318 77.1886 7.75184 72.1793C7.05179 69.7515 6.45418 64.0583 9.16903 64.8619H9.15196Z" fill="url(#paint1_linear_5911_134688)"/>
<path d="M67.0689 19.5728C66.5737 22.7015 66.5737 25.8986 67.0177 28.9931C67.0177 29.1128 67.0518 29.2496 67.0689 29.3864C67.9226 35.0625 70.2106 40.3454 73.6938 44.175V57.3395C73.062 56.9634 66.403 52.826 59.5219 59.0492C53.7166 64.2979 57.8828 70.4356 57.7291 71.8205C55.1679 74.2482 51.5652 78.3343 48.9869 84.4891C43.0962 98.5597 47.2453 112.254 48.3039 115.417C48.4405 115.725 49.3626 117.811 48.5601 119.982C47.7746 122.085 44.9744 123.76 42.8059 126C40.4838 123.606 37.8543 122.085 37.0518 119.982C36.2322 117.811 37.1542 115.725 37.3079 115.417C38.3495 112.254 42.4986 98.5426 36.6249 84.4891C34.0467 78.3514 30.4439 74.2482 27.8657 71.8205C27.712 70.4356 31.8611 64.2808 26.0729 59.0492C19.1747 52.8089 12.5157 56.9634 11.8839 57.3395C11.8839 52.9457 11.8839 48.5689 11.8839 44.175C15.3671 40.3454 17.6722 35.0454 18.5088 29.3864C18.5259 29.2667 18.56 29.1299 18.5771 28.9931C19.004 25.8986 19.004 22.7015 18.5088 19.5728C16.8526 8.97286 9.64713 2.11707 1.34889 1.46739C1.24644 1.46739 0.119522 0.407397 0 0.28772H1.62208C10.8423 0.28772 19.5333 6.35706 22.9994 17.4186C25.4069 25.0951 24.8435 32.4809 23.819 37.6954C23.0507 41.5934 21.992 44.2605 21.7359 44.8931C25.8167 46.0728 28.9414 48.056 31.144 49.817C31.8782 50.3982 32.4929 50.9624 33.0222 51.4582C38.3153 56.4847 42.3278 62.6053 42.8401 67.3582C43.3352 62.6224 47.2795 56.4847 52.5726 51.4582C53.119 50.9282 53.7849 50.3299 54.5703 49.7144C56.7729 47.9705 59.8463 46.0557 63.8589 44.876C63.6027 44.2434 62.5612 41.5763 61.7928 37.6783C60.7513 32.4809 60.1878 25.0951 62.5953 17.4016C66.0615 6.35706 74.7524 0.28772 83.9556 0.28772H85.5777C85.4582 0.407397 84.3313 1.4503 84.2288 1.46739C75.9306 2.11707 68.7251 8.98996 67.0689 19.5728Z" fill="url(#paint2_linear_5911_134688)"/>
</g>
<defs>
<linearGradient id="paint0_linear_5911_134688" x1="70.8765" y1="20.8719" x2="61.6497" y2="105.105" gradientUnits="userSpaceOnUse">
<stop stop-color="#FCC054"/>
<stop offset="0.04" stop-color="#F2B34C"/>
<stop offset="0.13" stop-color="#DE9B3B"/>
<stop offset="0.18" stop-color="#D79236"/>
<stop offset="0.26" stop-color="#DD9A3B"/>
<stop offset="0.38" stop-color="#F0B14A"/>
<stop offset="0.45" stop-color="#FCC054"/>
<stop offset="0.56" stop-color="#FCC75D"/>
<stop offset="0.75" stop-color="#FCDD75"/>
<stop offset="0.89" stop-color="#FDF08B"/>
</linearGradient>
<linearGradient id="paint1_linear_5911_134688" x1="29.2829" y1="16.3243" x2="20.056" y2="100.557" gradientUnits="userSpaceOnUse">
<stop stop-color="#FCC054"/>
<stop offset="0.04" stop-color="#F2B34C"/>
<stop offset="0.13" stop-color="#DE9B3B"/>
<stop offset="0.18" stop-color="#D79236"/>
<stop offset="0.26" stop-color="#DD9A3B"/>
<stop offset="0.38" stop-color="#F0B14A"/>
<stop offset="0.45" stop-color="#FCC054"/>
<stop offset="0.56" stop-color="#FCC75D"/>
<stop offset="0.75" stop-color="#FCDD75"/>
<stop offset="0.89" stop-color="#FDF08B"/>
</linearGradient>
<linearGradient id="paint2_linear_5911_134688" x1="40.9107" y1="17.5896" x2="31.6838" y2="101.823" gradientUnits="userSpaceOnUse">
<stop stop-color="#FCC054"/>
<stop offset="0.04" stop-color="#F2B34C"/>
<stop offset="0.13" stop-color="#DE9B3B"/>
<stop offset="0.18" stop-color="#D79236"/>
<stop offset="0.26" stop-color="#DD9A3B"/>
<stop offset="0.38" stop-color="#F0B14A"/>
<stop offset="0.45" stop-color="#FCC054"/>
<stop offset="0.56" stop-color="#FCC75D"/>
<stop offset="0.75" stop-color="#FCDD75"/>
<stop offset="0.89" stop-color="#FDF08B"/>
</linearGradient>
</defs>
</svg>
